<svg width="486" height="69" viewBox="0 0 486 69" fill="none" xmlns="http://www.w3.org/2000/svg">
<rect width="486" height="69" rx="10" fill="#2A2B2B"/>
<path d="M44.208 31.928C44.208 34.232 43.8827 36.2533 43.232 37.992C42.592 39.72 41.632 41.0693 40.352 42.04C39.072 43 37.488 43.48 35.6 43.48C33.7227 43.48 32.1387 43.0107 30.848 42.072C29.568 41.1227 28.6027 39.7893 27.952 38.072C27.312 36.344 26.992 34.3013 26.992 31.944C26.992 29.64 27.312 27.624 27.952 25.896C28.6027 24.1573 29.568 22.808 30.848 21.848C32.1387 20.8773 33.7227 20.392 35.6 20.392C37.488 20.392 39.072 20.8613 40.352 21.8C41.632 22.7387 42.592 24.072 43.232 25.8C43.8827 27.528 44.208 29.5707 44.208 31.928ZM39.696 31.928C39.696 29.1333 39.376 27.064 38.736 25.72C38.1067 24.3653 37.0613 23.688 35.6 23.688C34.1387 23.688 33.088 24.3653 32.448 25.72C31.8187 27.0747 31.504 29.1493 31.504 31.944C31.504 34.7493 31.8293 36.824 32.48 38.168C33.1307 39.5013 34.1707 40.168 35.6 40.168C37.0827 40.168 38.1333 39.4907 38.752 38.136C39.3813 36.7813 39.696 34.712 39.696 31.928ZM62.3875 42.056C61.7582 42.472 60.9955 42.8133 60.0995 43.08C59.2035 43.3467 58.2328 43.48 57.1875 43.48C55.1182 43.48 53.5608 42.9467 52.5155 41.88C51.4702 40.8027 50.9475 39.3733 50.9475 37.592V29.048H47.2675V26.056H50.9475V22.328L55.1715 21.816V26.056H60.7715L60.3395 29.048H55.1715V37.576C55.1715 38.4507 55.3848 39.0907 55.8115 39.496C56.2382 39.9013 56.9262 40.104 57.8755 40.104C58.4835 40.104 59.0382 40.0347 59.5395 39.896C60.0515 39.7467 60.5155 39.56 60.9315 39.336L62.3875 42.056ZM71.175 18.888V27.96C71.879 27.16 72.6683 26.5627 73.543 26.168C74.4283 25.7733 75.351 25.576 76.311 25.576C77.8683 25.576 79.0363 26.0187 79.815 26.904C80.6043 27.7787 80.999 29.0107 80.999 30.6V43H76.775V31.544C76.775 30.52 76.615 29.7947 76.295 29.368C75.9857 28.9413 75.4523 28.728 74.695 28.728C74.247 28.728 73.8097 28.8347 73.383 29.048C72.967 29.2507 72.5723 29.528 72.199 29.88C71.8363 30.232 71.495 30.6267 71.175 31.064V43H66.951V19.304L71.175 18.888ZM89.7385 35.816C89.8238 36.872 90.0638 37.7307 90.4585 38.392C90.8638 39.0533 91.3812 39.5387 92.0105 39.848C92.6398 40.1573 93.3385 40.312 94.1065 40.312C94.9172 40.312 95.6798 40.184 96.3945 39.928C97.1092 39.672 97.8132 39.3147 98.5065 38.856L100.267 41.272C99.4772 41.9333 98.5332 42.4667 97.4345 42.872C96.3465 43.2773 95.1465 43.48 93.8345 43.48C91.9998 43.48 90.4532 43.1013 89.1945 42.344C87.9465 41.5867 87.0025 40.536 86.3625 39.192C85.7225 37.848 85.4025 36.3013 85.4025 34.552C85.4025 32.8667 85.7172 31.3467 86.3465 29.992C86.9758 28.6373 87.8825 27.5653 89.0665 26.776C90.2505 25.976 91.6798 25.576 93.3545 25.576C94.9118 25.576 96.2558 25.9173 97.3865 26.6C98.5172 27.2827 99.3918 28.264 100.01 29.544C100.629 30.8133 100.939 32.344 100.939 34.136C100.939 34.424 100.928 34.7173 100.907 35.016C100.896 35.3147 100.88 35.5813 100.859 35.816H89.7385ZM93.3705 28.552C92.3465 28.552 91.5038 28.92 90.8425 29.656C90.1918 30.3813 89.8078 31.5333 89.6905 33.112H96.8265C96.8052 31.6827 96.5065 30.568 95.9305 29.768C95.3652 28.9573 94.5118 28.552 93.3705 28.552ZM105.486 43V40.072H107.87V28.968H105.486V26.056H111.086L111.87 29.944C112.489 28.504 113.267 27.4213 114.206 26.696C115.145 25.96 116.323 25.592 117.742 25.592C118.286 25.592 118.766 25.6347 119.182 25.72C119.609 25.8053 120.014 25.9173 120.398 26.056L119.134 29.608C118.803 29.5227 118.489 29.4587 118.19 29.416C117.891 29.3627 117.555 29.336 117.182 29.336C116.009 29.336 114.985 29.7947 114.11 30.712C113.246 31.6187 112.574 32.8507 112.094 34.408V40.072H115.47V43H105.486ZM116.83 32.664V28.168L117.406 26.056H120.398L119.646 32.664H116.83Z" fill="white"/>
</svg>
