<svg width="472" height="67" viewBox="0 0 472 67" fill="none" xmlns="http://www.w3.org/2000/svg">
<rect width="472" height="67" rx="10" fill="#027300"/>
<path d="M36.376 37.472C36.376 36.576 36.2 35.8773 35.848 35.376C35.5067 34.8747 35.032 34.5227 34.424 34.32C33.816 34.1067 33.1227 34 32.344 34H29.624V40.72H32.152C32.6747 40.72 33.1867 40.6773 33.688 40.592C34.1893 40.5067 34.6427 40.352 35.048 40.128C35.464 39.8933 35.7893 39.5627 36.024 39.136C36.2587 38.7093 36.376 38.1547 36.376 37.472ZM35.528 27.888C35.528 26.8853 35.2133 26.1653 34.584 25.728C33.9653 25.2907 33.048 25.072 31.832 25.072H29.624V30.912H32.024C33.2187 30.912 34.0987 30.6773 34.664 30.208C35.24 29.728 35.528 28.9547 35.528 27.888ZM40.92 37.584C40.92 38.832 40.6747 39.872 40.184 40.704C39.704 41.536 39.048 42.192 38.216 42.672C37.384 43.152 36.44 43.4933 35.384 43.696C34.3387 43.8987 33.2453 44 32.104 44H25.24V21.872H31.704C32.792 21.872 33.8267 21.9627 34.808 22.144C35.7893 22.3253 36.664 22.6347 37.432 23.072C38.2107 23.4987 38.824 24.0747 39.272 24.8C39.7307 25.5253 39.96 26.4267 39.96 27.504C39.96 28.4107 39.768 29.1893 39.384 29.84C39.0107 30.4907 38.5093 31.0187 37.88 31.424C37.2613 31.8187 36.5947 32.1067 35.88 32.288C36.68 32.416 37.464 32.6667 38.232 33.04C39.0107 33.4027 39.6507 33.952 40.152 34.688C40.664 35.4133 40.92 36.3787 40.92 37.584ZM58.2835 39.536C58.2835 40.1867 58.3795 40.6613 58.5715 40.96C58.7635 41.248 59.0728 41.4667 59.4995 41.616L58.5875 44.448C57.6808 44.352 56.9075 44.128 56.2675 43.776C55.6382 43.4133 55.1528 42.8747 54.8115 42.16C54.1715 42.9387 53.3608 43.52 52.3795 43.904C51.4088 44.288 50.3902 44.48 49.3235 44.48C47.5955 44.48 46.2248 43.9893 45.2115 43.008C44.1982 42.0267 43.6915 40.752 43.6915 39.184C43.6915 37.3813 44.3955 35.9947 45.8035 35.024C47.2222 34.0427 49.2275 33.552 51.8195 33.552H54.1875V32.64C54.1875 31.6373 53.8782 30.912 53.2595 30.464C52.6408 30.0053 51.7502 29.776 50.5875 29.776C50.0435 29.776 49.3608 29.8507 48.5395 30C47.7288 30.1387 46.8915 30.3573 46.0275 30.656L45.0195 27.76C46.0968 27.3547 47.1795 27.056 48.2675 26.864C49.3662 26.672 50.3635 26.576 51.2595 26.576C53.6382 26.576 55.4035 27.0827 56.5555 28.096C57.7075 29.0987 58.2835 30.5227 58.2835 32.368V39.536ZM50.6995 41.424C51.3395 41.424 51.9848 41.2427 52.6355 40.88C53.2968 40.5173 53.8142 40.0107 54.1875 39.36V36.064H52.5235C50.9555 36.064 49.8195 36.3147 49.1155 36.816C48.4222 37.3173 48.0755 38.0267 48.0755 38.944C48.0755 39.7333 48.2995 40.3467 48.7475 40.784C49.1955 41.2107 49.8462 41.424 50.6995 41.424ZM72.479 41.088C73.2257 41.088 73.9243 40.9493 74.575 40.672C75.2363 40.3947 75.871 40.0427 76.479 39.616L78.399 42.32C77.6523 42.9493 76.751 43.4667 75.695 43.872C74.639 44.2773 73.5083 44.48 72.303 44.48C70.5323 44.48 69.0123 44.112 67.743 43.376C66.4843 42.6293 65.5137 41.5947 64.831 40.272C64.159 38.9387 63.823 37.392 63.823 35.632C63.823 33.8933 64.1643 32.3413 64.847 30.976C65.5403 29.6 66.5217 28.5227 67.791 27.744C69.071 26.9653 70.5963 26.576 72.367 26.576C73.583 26.576 74.6817 26.752 75.663 27.104C76.655 27.4453 77.5617 27.9573 78.383 28.64L76.511 31.232C75.8817 30.7947 75.231 30.464 74.559 30.24C73.8977 30.0053 73.2097 29.888 72.495 29.888C71.247 29.888 70.2283 30.3413 69.439 31.248C68.6603 32.144 68.271 33.6053 68.271 35.632C68.271 36.9653 68.4523 38.032 68.815 38.832C69.1883 39.632 69.6897 40.208 70.319 40.56C70.959 40.912 71.679 41.088 72.479 41.088ZM98.5625 27.056L92.2745 34.608L99.1705 44H94.1945L87.6665 34.72L93.9065 27.056H98.5625ZM87.4265 19.84V44H83.2025V20.288L87.4265 19.84ZM105.926 36.816C106.011 37.872 106.251 38.7307 106.646 39.392C107.051 40.0533 107.569 40.5387 108.198 40.848C108.827 41.1573 109.526 41.312 110.294 41.312C111.105 41.312 111.867 41.184 112.582 40.928C113.297 40.672 114.001 40.3147 114.694 39.856L116.454 42.272C115.665 42.9333 114.721 43.4667 113.622 43.872C112.534 44.2773 111.334 44.48 110.022 44.48C108.187 44.48 106.641 44.1013 105.382 43.344C104.134 42.5867 103.19 41.536 102.55 40.192C101.91 38.848 101.59 37.3013 101.59 35.552C101.59 33.8667 101.905 32.3467 102.534 30.992C103.163 29.6373 104.07 28.5653 105.254 27.776C106.438 26.976 107.867 26.576 109.542 26.576C111.099 26.576 112.443 26.9173 113.574 27.6C114.705 28.2827 115.579 29.264 116.198 30.544C116.817 31.8133 117.126 33.344 117.126 35.136C117.126 35.424 117.115 35.7173 117.094 36.016C117.083 36.3147 117.067 36.5813 117.046 36.816H105.926ZM109.558 29.552C108.534 29.552 107.691 29.92 107.03 30.656C106.379 31.3813 105.995 32.5333 105.878 34.112H113.014C112.993 32.6827 112.694 31.568 112.118 30.768C111.553 29.9573 110.699 29.552 109.558 29.552ZM121.514 44V27.056H125.194L125.498 29.152C126.223 28.2987 127.039 27.6587 127.946 27.232C128.852 26.7947 129.828 26.576 130.874 26.576C132.399 26.576 133.562 27.0187 134.362 27.904C135.162 28.7787 135.562 30.0107 135.562 31.6V44H131.338V33.248C131.338 32.3947 131.284 31.712 131.178 31.2C131.071 30.6773 130.868 30.304 130.57 30.08C130.271 29.8453 129.839 29.728 129.274 29.728C128.815 29.728 128.372 29.8293 127.946 30.032C127.53 30.2347 127.135 30.5067 126.762 30.848C126.399 31.1893 126.058 31.568 125.738 31.984V44H121.514ZM150.525 19.84L154.749 20.288V44H151.005L150.749 42C150.226 42.7467 149.57 43.3493 148.781 43.808C147.992 44.256 147.074 44.48 146.029 44.48C144.6 44.48 143.416 44.1067 142.477 43.36C141.549 42.6133 140.856 41.568 140.397 40.224C139.949 38.8693 139.725 37.296 139.725 35.504C139.725 33.776 139.992 32.24 140.525 30.896C141.058 29.552 141.826 28.496 142.829 27.728C143.842 26.96 145.042 26.576 146.429 26.576C147.261 26.576 148.018 26.72 148.701 27.008C149.384 27.296 149.992 27.7227 150.525 28.288V19.84ZM147.565 29.728C146.498 29.728 145.656 30.192 145.037 31.12C144.429 32.0373 144.125 33.504 144.125 35.52C144.125 36.9387 144.253 38.0747 144.509 38.928C144.765 39.7707 145.128 40.3787 145.597 40.752C146.066 41.1253 146.621 41.312 147.261 41.312C147.965 41.312 148.584 41.104 149.117 40.688C149.661 40.2613 150.13 39.7333 150.525 39.104V31.392C150.13 30.8693 149.688 30.464 149.197 30.176C148.717 29.8773 148.173 29.728 147.565 29.728ZM190.068 32.832C190.068 31.1893 189.913 29.8613 189.604 28.848C189.305 27.8347 188.895 27.0613 188.372 26.528C187.849 25.984 187.257 25.616 186.596 25.424C185.935 25.232 185.247 25.136 184.532 25.136H182.9V40.752H184.548C185.295 40.752 185.999 40.6347 186.66 40.4C187.332 40.1653 187.924 39.76 188.436 39.184C188.948 38.5973 189.348 37.792 189.636 36.768C189.924 35.7333 190.068 34.4213 190.068 32.832ZM194.644 32.832C194.644 34.6453 194.447 36.1973 194.052 37.488C193.668 38.7787 193.135 39.8507 192.452 40.704C191.769 41.5467 190.98 42.208 190.084 42.688C189.199 43.168 188.249 43.5093 187.236 43.712C186.233 43.904 185.215 44 184.18 44H178.516V21.872H183.796C185.172 21.872 186.505 22.0213 187.796 22.32C189.087 22.608 190.244 23.1413 191.268 23.92C192.303 24.6987 193.124 25.808 193.732 27.248C194.34 28.6773 194.644 30.5387 194.644 32.832ZM201.864 36.816C201.949 37.872 202.189 38.7307 202.584 39.392C202.989 40.0533 203.506 40.5387 204.135 40.848C204.765 41.1573 205.464 41.312 206.232 41.312C207.042 41.312 207.805 41.184 208.52 40.928C209.234 40.672 209.938 40.3147 210.632 39.856L212.392 42.272C211.602 42.9333 210.658 43.4667 209.56 43.872C208.472 44.2773 207.272 44.48 205.96 44.48C204.125 44.48 202.578 44.1013 201.32 43.344C200.072 42.5867 199.128 41.536 198.488 40.192C197.848 38.848 197.528 37.3013 197.528 35.552C197.528 33.8667 197.842 32.3467 198.472 30.992C199.101 29.6373 200.008 28.5653 201.192 27.776C202.376 26.976 203.805 26.576 205.48 26.576C207.037 26.576 208.381 26.9173 209.512 27.6C210.642 28.2827 211.517 29.264 212.135 30.544C212.754 31.8133 213.064 33.344 213.064 35.136C213.064 35.424 213.053 35.7173 213.032 36.016C213.021 36.3147 213.005 36.5813 212.984 36.816H201.864ZM205.496 29.552C204.472 29.552 203.629 29.92 202.968 30.656C202.317 31.3813 201.933 32.5333 201.816 34.112H208.952C208.93 32.6827 208.632 31.568 208.056 30.768C207.49 29.9573 206.637 29.552 205.496 29.552ZM232.795 27.056L226.971 44H222.011L216.155 27.056H220.699L224.555 40.624L228.491 27.056H232.795ZM240.239 36.816C240.324 37.872 240.564 38.7307 240.959 39.392C241.364 40.0533 241.881 40.5387 242.51 40.848C243.14 41.1573 243.839 41.312 244.607 41.312C245.417 41.312 246.18 41.184 246.895 40.928C247.609 40.672 248.313 40.3147 249.007 39.856L250.767 42.272C249.977 42.9333 249.033 43.4667 247.935 43.872C246.847 44.2773 245.647 44.48 244.335 44.48C242.5 44.48 240.953 44.1013 239.695 43.344C238.447 42.5867 237.503 41.536 236.863 40.192C236.223 38.848 235.903 37.3013 235.903 35.552C235.903 33.8667 236.217 32.3467 236.847 30.992C237.476 29.6373 238.383 28.5653 239.567 27.776C240.751 26.976 242.18 26.576 243.855 26.576C245.412 26.576 246.756 26.9173 247.887 27.6C249.017 28.2827 249.892 29.264 250.51 30.544C251.129 31.8133 251.439 33.344 251.439 35.136C251.439 35.424 251.428 35.7173 251.407 36.016C251.396 36.3147 251.38 36.5813 251.359 36.816H240.239ZM243.871 29.552C242.847 29.552 242.004 29.92 241.343 30.656C240.692 31.3813 240.308 32.5333 240.191 34.112H247.327C247.305 32.6827 247.007 31.568 246.431 30.768C245.865 29.9573 245.012 29.552 243.871 29.552ZM263.89 20.288V39.072C263.89 39.808 264.103 40.3307 264.53 40.64C264.967 40.9493 265.554 41.104 266.29 41.104C266.749 41.104 267.191 41.056 267.618 40.96C268.045 40.8533 268.45 40.7253 268.834 40.576L269.874 43.456C269.341 43.7227 268.69 43.9573 267.922 44.16C267.165 44.3733 266.285 44.48 265.282 44.48C263.437 44.48 262.039 43.952 261.09 42.896C260.141 41.84 259.666 40.416 259.666 38.624V23.28H254.594V20.288H263.89ZM282.054 26.576C283.739 26.576 285.168 26.944 286.342 27.68C287.515 28.416 288.406 29.456 289.014 30.8C289.632 32.1333 289.942 33.696 289.942 35.488C289.942 37.3227 289.632 38.912 289.014 40.256C288.395 41.6 287.499 42.64 286.326 43.376C285.152 44.112 283.723 44.48 282.038 44.48C280.363 44.48 278.934 44.1227 277.75 43.408C276.576 42.6827 275.68 41.6533 275.062 40.32C274.443 38.976 274.134 37.376 274.134 35.52C274.134 33.7493 274.443 32.192 275.062 30.848C275.68 29.504 276.582 28.4587 277.766 27.712C278.95 26.9547 280.379 26.576 282.054 26.576ZM282.054 29.76C280.87 29.76 279.984 30.224 279.398 31.152C278.822 32.08 278.534 33.536 278.534 35.52C278.534 37.5253 278.822 38.992 279.398 39.92C279.974 40.8373 280.854 41.296 282.038 41.296C283.222 41.296 284.102 40.8373 284.678 39.92C285.254 38.992 285.542 37.5147 285.542 35.488C285.542 33.5147 285.254 32.0693 284.678 31.152C284.102 30.224 283.227 29.76 282.054 29.76ZM302.953 26.576C304.446 26.576 305.641 26.944 306.537 27.68C307.444 28.4053 308.1 29.4347 308.505 30.768C308.921 32.1013 309.129 33.6747 309.129 35.488C309.129 37.2267 308.878 38.7733 308.377 40.128C307.876 41.4827 307.14 42.5493 306.169 43.328C305.209 44.096 304.025 44.48 302.617 44.48C300.889 44.48 299.492 43.8667 298.425 42.64V50.528L294.201 50.976V27.056H297.913L298.137 29.12C298.809 28.2453 299.561 27.6053 300.393 27.2C301.225 26.784 302.078 26.576 302.953 26.576ZM301.721 29.744C301.006 29.744 300.377 29.9573 299.833 30.384C299.3 30.8107 298.83 31.3387 298.425 31.968V39.552C298.809 40.128 299.246 40.56 299.737 40.848C300.228 41.136 300.782 41.28 301.401 41.28C302.478 41.28 303.3 40.832 303.865 39.936C304.441 39.0293 304.729 37.5627 304.729 35.536C304.729 34.1067 304.612 32.9707 304.377 32.128C304.153 31.2747 303.817 30.6667 303.369 30.304C302.921 29.9307 302.372 29.744 301.721 29.744ZM325.437 26.576C326.162 26.576 326.781 26.7307 327.293 27.04C327.805 27.3387 328.199 27.8453 328.477 28.56C328.754 29.264 328.892 30.224 328.892 31.44V44H325.213V31.968C325.213 31.2 325.149 30.656 325.021 30.336C324.903 30.016 324.631 29.856 324.205 29.856C323.853 29.856 323.495 29.9627 323.133 30.176C322.781 30.3787 322.413 30.7467 322.029 31.28V44H318.845V31.968C318.845 31.2 318.781 30.656 318.653 30.336C318.535 30.016 318.263 29.856 317.837 29.856C317.474 29.856 317.117 29.9627 316.765 30.176C316.413 30.3787 316.045 30.7467 315.661 31.28V44H311.933V27.056H315.085L315.357 28.816C315.858 28.112 316.386 27.5627 316.941 27.168C317.495 26.7733 318.162 26.576 318.941 26.576C319.581 26.576 320.146 26.736 320.637 27.056C321.138 27.3653 321.495 27.8987 321.709 28.656C322.199 28.0373 322.749 27.536 323.357 27.152C323.965 26.768 324.658 26.576 325.437 26.576ZM336.176 36.816C336.261 37.872 336.501 38.7307 336.896 39.392C337.301 40.0533 337.819 40.5387 338.448 40.848C339.077 41.1573 339.776 41.312 340.544 41.312C341.355 41.312 342.117 41.184 342.832 40.928C343.547 40.672 344.251 40.3147 344.944 39.856L346.704 42.272C345.915 42.9333 344.971 43.4667 343.872 43.872C342.784 44.2773 341.584 44.48 340.272 44.48C338.437 44.48 336.891 44.1013 335.632 43.344C334.384 42.5867 333.44 41.536 332.8 40.192C332.16 38.848 331.84 37.3013 331.84 35.552C331.84 33.8667 332.155 32.3467 332.784 30.992C333.413 29.6373 334.32 28.5653 335.504 27.776C336.688 26.976 338.117 26.576 339.792 26.576C341.349 26.576 342.693 26.9173 343.824 27.6C344.955 28.2827 345.829 29.264 346.448 30.544C347.067 31.8133 347.376 33.344 347.376 35.136C347.376 35.424 347.365 35.7173 347.344 36.016C347.333 36.3147 347.317 36.5813 347.296 36.816H336.176ZM339.808 29.552C338.784 29.552 337.941 29.92 337.28 30.656C336.629 31.3813 336.245 32.5333 336.128 34.112H343.264C343.243 32.6827 342.944 31.568 342.368 30.768C341.803 29.9573 340.949 29.552 339.808 29.552ZM351.764 44V27.056H355.444L355.748 29.152C356.473 28.2987 357.289 27.6587 358.196 27.232C359.102 26.7947 360.078 26.576 361.124 26.576C362.649 26.576 363.812 27.0187 364.612 27.904C365.412 28.7787 365.812 30.0107 365.812 31.6V44H361.588V33.248C361.588 32.3947 361.534 31.712 361.428 31.2C361.321 30.6773 361.118 30.304 360.82 30.08C360.521 29.8453 360.089 29.728 359.524 29.728C359.065 29.728 358.622 29.8293 358.196 30.032C357.78 30.2347 357.385 30.5067 357.012 30.848C356.649 31.1893 356.308 31.568 355.988 31.984V44H351.764ZM385.575 43.056C384.946 43.472 384.183 43.8133 383.287 44.08C382.391 44.3467 381.42 44.48 380.375 44.48C378.306 44.48 376.748 43.9467 375.703 42.88C374.658 41.8027 374.135 40.3733 374.135 38.592V30.048H370.455V27.056H374.135V23.328L378.359 22.816V27.056H383.959L383.527 30.048H378.359V38.576C378.359 39.4507 378.572 40.0907 378.999 40.496C379.426 40.9013 380.114 41.104 381.063 41.104C381.671 41.104 382.226 41.0347 382.727 40.896C383.239 40.7467 383.703 40.56 384.119 40.336L385.575 43.056Z" fill="white"/>
</svg>
