<svg width="472" height="70" viewBox="0 0 472 70" fill="none" xmlns="http://www.w3.org/2000/svg">
<rect width="472" height="69.0667" rx="10" fill="#1354B0"/>
<path d="M36.68 29.96C36.68 29.0427 36.504 28.3013 36.152 27.736C35.8107 27.16 35.3093 26.7387 34.648 26.472C33.9867 26.2053 33.192 26.072 32.264 26.072H29.976V34.088H32.392C33.2667 34.088 34.0187 33.9547 34.648 33.688C35.288 33.4107 35.784 32.968 36.136 32.36C36.4987 31.752 36.68 30.952 36.68 29.96ZM41.224 29.928C41.224 31.6453 40.856 33.0533 40.12 34.152C39.3947 35.24 38.376 36.0453 37.064 36.568C35.752 37.08 34.2373 37.336 32.52 37.336H29.976V45H25.592V22.872H32.104C34.9733 22.872 37.208 23.4533 38.808 24.616C40.4187 25.7787 41.224 27.5493 41.224 29.928ZM44.9235 45V42.072H47.3075V30.968H44.9235V28.056H50.5235L51.3075 31.944C51.9262 30.504 52.7048 29.4213 53.6435 28.696C54.5822 27.96 55.7608 27.592 57.1795 27.592C57.7235 27.592 58.2035 27.6347 58.6195 27.72C59.0462 27.8053 59.4515 27.9173 59.8355 28.056L58.5715 31.608C58.2408 31.5227 57.9262 31.4587 57.6275 31.416C57.3288 31.3627 56.9928 31.336 56.6195 31.336C55.4462 31.336 54.4222 31.7947 53.5475 32.712C52.6835 33.6187 52.0115 34.8507 51.5315 36.408V42.072H54.9075V45H44.9235ZM56.2675 34.664V30.168L56.8435 28.056H59.8355L59.0835 34.664H56.2675ZM70.991 27.576C72.6763 27.576 74.1057 27.944 75.279 28.68C76.4523 29.416 77.343 30.456 77.951 31.8C78.5697 33.1333 78.879 34.696 78.879 36.488C78.879 38.3227 78.5697 39.912 77.951 41.256C77.3323 42.6 76.4363 43.64 75.263 44.376C74.0897 45.112 72.6603 45.48 70.975 45.48C69.3003 45.48 67.871 45.1227 66.687 44.408C65.5137 43.6827 64.6177 42.6533 63.999 41.32C63.3803 39.976 63.071 38.376 63.071 36.52C63.071 34.7493 63.3803 33.192 63.999 31.848C64.6177 30.504 65.519 29.4587 66.703 28.712C67.887 27.9547 69.3163 27.576 70.991 27.576ZM70.991 30.76C69.807 30.76 68.9217 31.224 68.335 32.152C67.759 33.08 67.471 34.536 67.471 36.52C67.471 38.5253 67.759 39.992 68.335 40.92C68.911 41.8373 69.791 42.296 70.975 42.296C72.159 42.296 73.039 41.8373 73.615 40.92C74.191 39.992 74.479 38.5147 74.479 36.488C74.479 34.5147 74.191 33.0693 73.615 32.152C73.039 31.224 72.1643 30.76 70.991 30.76ZM97.7465 25.672L98.8025 28.968C98.1625 29.192 97.4425 29.352 96.6425 29.448C95.8425 29.5333 94.9252 29.576 93.8905 29.576C94.9252 30.024 95.7092 30.5947 96.2425 31.288C96.7865 31.9707 97.0585 32.84 97.0585 33.896C97.0585 34.9947 96.7758 35.976 96.2105 36.84C95.6558 37.704 94.8612 38.3813 93.8265 38.872C92.8025 39.3627 91.5812 39.608 90.1625 39.608C89.7252 39.608 89.3358 39.5867 88.9945 39.544C88.6532 39.5013 88.3225 39.4427 88.0025 39.368C87.7892 39.4853 87.6238 39.656 87.5065 39.88C87.3892 40.104 87.3305 40.3333 87.3305 40.568C87.3305 40.888 87.4532 41.1653 87.6985 41.4C87.9545 41.624 88.4985 41.736 89.3305 41.736H92.2105C93.4585 41.736 94.5518 41.9493 95.4905 42.376C96.4398 42.792 97.1758 43.3573 97.6985 44.072C98.2318 44.7867 98.4985 45.608 98.4985 46.536C98.4985 48.2427 97.7572 49.576 96.2745 50.536C94.7918 51.496 92.6265 51.976 89.7785 51.976C87.7412 51.976 86.1518 51.768 85.0105 51.352C83.8798 50.936 83.0852 50.328 82.6265 49.528C82.1678 48.7387 81.9385 47.784 81.9385 46.664H85.6985C85.6985 47.208 85.8052 47.656 86.0185 48.008C86.2425 48.36 86.6532 48.6213 87.2505 48.792C87.8585 48.9627 88.7278 49.048 89.8585 49.048C90.9892 49.048 91.8745 48.9573 92.5145 48.776C93.1652 48.5947 93.6238 48.3333 93.8905 47.992C94.1572 47.6613 94.2905 47.272 94.2905 46.824C94.2905 46.216 94.0345 45.7413 93.5225 45.4C93.0105 45.0587 92.2852 44.888 91.3465 44.888H88.5465C86.8398 44.888 85.5972 44.5573 84.8185 43.896C84.0398 43.224 83.6505 42.4507 83.6505 41.576C83.6505 40.9787 83.8105 40.408 84.1305 39.864C84.4612 39.3093 84.9305 38.84 85.5385 38.456C84.4932 37.9013 83.7358 37.24 83.2665 36.472C82.8078 35.6933 82.5785 34.7547 82.5785 33.656C82.5785 32.4293 82.8878 31.3627 83.5065 30.456C84.1252 29.5493 84.9838 28.8453 86.0825 28.344C87.1812 27.8427 88.4452 27.592 89.8745 27.592C91.1865 27.6027 92.3012 27.5227 93.2185 27.352C94.1465 27.1813 94.9625 26.9467 95.6665 26.648C96.3812 26.3493 97.0745 26.024 97.7465 25.672ZM89.9545 30.408C88.9518 30.408 88.1838 30.7013 87.6505 31.288C87.1278 31.8747 86.8665 32.6533 86.8665 33.624C86.8665 34.6267 87.1385 35.4213 87.6825 36.008C88.2265 36.5947 88.9892 36.888 89.9705 36.888C90.9412 36.888 91.6772 36.6053 92.1785 36.04C92.6905 35.464 92.9465 34.6427 92.9465 33.576C92.9465 32.5093 92.6905 31.7147 92.1785 31.192C91.6772 30.6693 90.9358 30.408 89.9545 30.408ZM102.486 45V42.072H104.87V30.968H102.486V28.056H108.086L108.87 31.944C109.489 30.504 110.267 29.4213 111.206 28.696C112.145 27.96 113.323 27.592 114.742 27.592C115.286 27.592 115.766 27.6347 116.182 27.72C116.609 27.8053 117.014 27.9173 117.398 28.056L116.134 31.608C115.803 31.5227 115.489 31.4587 115.19 31.416C114.891 31.3627 114.555 31.336 114.182 31.336C113.009 31.336 111.985 31.7947 111.11 32.712C110.246 33.6187 109.574 34.8507 109.094 36.408V42.072H112.47V45H102.486ZM113.83 34.664V30.168L114.406 28.056H117.398L116.646 34.664H113.83ZM135.034 40.536C135.034 41.1867 135.13 41.6613 135.322 41.96C135.514 42.248 135.823 42.4667 136.25 42.616L135.338 45.448C134.431 45.352 133.658 45.128 133.018 44.776C132.388 44.4133 131.903 43.8747 131.562 43.16C130.922 43.9387 130.111 44.52 129.13 44.904C128.159 45.288 127.14 45.48 126.074 45.48C124.346 45.48 122.975 44.9893 121.962 44.008C120.948 43.0267 120.442 41.752 120.442 40.184C120.442 38.3813 121.146 36.9947 122.554 36.024C123.972 35.0427 125.978 34.552 128.57 34.552H130.938V33.64C130.938 32.6373 130.628 31.912 130.01 31.464C129.391 31.0053 128.5 30.776 127.338 30.776C126.794 30.776 126.111 30.8507 125.29 31C124.479 31.1387 123.642 31.3573 122.778 31.656L121.77 28.76C122.847 28.3547 123.93 28.056 125.018 27.864C126.116 27.672 127.114 27.576 128.01 27.576C130.388 27.576 132.154 28.0827 133.306 29.096C134.458 30.0987 135.034 31.5227 135.034 33.368V40.536ZM127.45 42.424C128.09 42.424 128.735 42.2427 129.386 41.88C130.047 41.5173 130.564 41.0107 130.938 40.36V37.064H129.274C127.706 37.064 126.57 37.3147 125.866 37.816C125.172 38.3173 124.826 39.0267 124.826 39.944C124.826 40.7333 125.05 41.3467 125.498 41.784C125.946 42.2107 126.596 42.424 127.45 42.424ZM152.749 27.576C153.474 27.576 154.093 27.7307 154.605 28.04C155.117 28.3387 155.512 28.8453 155.789 29.56C156.066 30.264 156.205 31.224 156.205 32.44V45H152.525V32.968C152.525 32.2 152.461 31.656 152.333 31.336C152.216 31.016 151.944 30.856 151.517 30.856C151.165 30.856 150.808 30.9627 150.445 31.176C150.093 31.3787 149.725 31.7467 149.341 32.28V45H146.157V32.968C146.157 32.2 146.093 31.656 145.965 31.336C145.848 31.016 145.576 30.856 145.149 30.856C144.786 30.856 144.429 30.9627 144.077 31.176C143.725 31.3787 143.357 31.7467 142.973 32.28V45H139.245V28.056H142.397L142.669 29.816C143.17 29.112 143.698 28.5627 144.253 28.168C144.808 27.7733 145.474 27.576 146.253 27.576C146.893 27.576 147.458 27.736 147.949 28.056C148.45 28.3653 148.808 28.8987 149.021 29.656C149.512 29.0373 150.061 28.536 150.669 28.152C151.277 27.768 151.97 27.576 152.749 27.576ZM171.937 27.576C172.662 27.576 173.281 27.7307 173.793 28.04C174.305 28.3387 174.699 28.8453 174.977 29.56C175.254 30.264 175.392 31.224 175.392 32.44V45H171.713V32.968C171.713 32.2 171.649 31.656 171.521 31.336C171.403 31.016 171.131 30.856 170.705 30.856C170.353 30.856 169.995 30.9627 169.633 31.176C169.281 31.3787 168.913 31.7467 168.529 32.28V45H165.345V32.968C165.345 32.2 165.281 31.656 165.153 31.336C165.035 31.016 164.763 30.856 164.337 30.856C163.974 30.856 163.617 30.9627 163.265 31.176C162.913 31.3787 162.545 31.7467 162.161 32.28V45H158.433V28.056H161.585L161.857 29.816C162.358 29.112 162.886 28.5627 163.441 28.168C163.995 27.7733 164.662 27.576 165.441 27.576C166.081 27.576 166.646 27.736 167.137 28.056C167.638 28.3653 167.995 28.8987 168.209 29.656C168.699 29.0373 169.249 28.536 169.857 28.152C170.465 27.768 171.158 27.576 171.937 27.576ZM188.82 28.056V42.008H193.284V45H179.636V42.008H184.596V31.048H179.796V28.056H188.82ZM186.084 19.512C186.863 19.512 187.492 19.752 187.972 20.232C188.463 20.712 188.708 21.3093 188.708 22.024C188.708 22.7387 188.463 23.3413 187.972 23.832C187.492 24.312 186.863 24.552 186.084 24.552C185.305 24.552 184.671 24.312 184.18 23.832C183.689 23.3413 183.444 22.7387 183.444 22.024C183.444 21.3093 183.689 20.712 184.18 20.232C184.671 19.752 185.305 19.512 186.084 19.512ZM198.264 45V28.056H201.944L202.248 30.152C202.973 29.2987 203.789 28.6587 204.696 28.232C205.602 27.7947 206.578 27.576 207.624 27.576C209.149 27.576 210.312 28.0187 211.112 28.904C211.912 29.7787 212.312 31.0107 212.312 32.6V45H208.088V34.248C208.088 33.3947 208.034 32.712 207.928 32.2C207.821 31.6773 207.618 31.304 207.32 31.08C207.021 30.8453 206.589 30.728 206.024 30.728C205.565 30.728 205.122 30.8293 204.696 31.032C204.28 31.2347 203.885 31.5067 203.512 31.848C203.149 32.1893 202.808 32.568 202.488 32.984V45H198.264ZM232.059 25.672L233.115 28.968C232.475 29.192 231.755 29.352 230.955 29.448C230.155 29.5333 229.238 29.576 228.203 29.576C229.238 30.024 230.022 30.5947 230.555 31.288C231.099 31.9707 231.371 32.84 231.371 33.896C231.371 34.9947 231.088 35.976 230.523 36.84C229.968 37.704 229.174 38.3813 228.139 38.872C227.115 39.3627 225.894 39.608 224.475 39.608C224.038 39.608 223.648 39.5867 223.307 39.544C222.966 39.5013 222.635 39.4427 222.315 39.368C222.102 39.4853 221.936 39.656 221.819 39.88C221.702 40.104 221.643 40.3333 221.643 40.568C221.643 40.888 221.766 41.1653 222.011 41.4C222.267 41.624 222.811 41.736 223.643 41.736H226.523C227.771 41.736 228.864 41.9493 229.803 42.376C230.752 42.792 231.488 43.3573 232.011 44.072C232.544 44.7867 232.811 45.608 232.811 46.536C232.811 48.2427 232.07 49.576 230.587 50.536C229.104 51.496 226.939 51.976 224.091 51.976C222.054 51.976 220.464 51.768 219.323 51.352C218.192 50.936 217.398 50.328 216.939 49.528C216.48 48.7387 216.251 47.784 216.251 46.664H220.011C220.011 47.208 220.118 47.656 220.331 48.008C220.555 48.36 220.966 48.6213 221.563 48.792C222.171 48.9627 223.04 49.048 224.171 49.048C225.302 49.048 226.187 48.9573 226.827 48.776C227.478 48.5947 227.936 48.3333 228.203 47.992C228.47 47.6613 228.603 47.272 228.603 46.824C228.603 46.216 228.347 45.7413 227.835 45.4C227.323 45.0587 226.598 44.888 225.659 44.888H222.859C221.152 44.888 219.91 44.5573 219.131 43.896C218.352 43.224 217.963 42.4507 217.963 41.576C217.963 40.9787 218.123 40.408 218.443 39.864C218.774 39.3093 219.243 38.84 219.851 38.456C218.806 37.9013 218.048 37.24 217.579 36.472C217.12 35.6933 216.891 34.7547 216.891 33.656C216.891 32.4293 217.2 31.3627 217.819 30.456C218.438 29.5493 219.296 28.8453 220.395 28.344C221.494 27.8427 222.758 27.592 224.187 27.592C225.499 27.6027 226.614 27.5227 227.531 27.352C228.459 27.1813 229.275 26.9467 229.979 26.648C230.694 26.3493 231.387 26.024 232.059 25.672ZM224.267 30.408C223.264 30.408 222.496 30.7013 221.963 31.288C221.44 31.8747 221.179 32.6533 221.179 33.624C221.179 34.6267 221.451 35.4213 221.995 36.008C222.539 36.5947 223.302 36.888 224.283 36.888C225.254 36.888 225.99 36.6053 226.491 36.04C227.003 35.464 227.259 34.6427 227.259 33.576C227.259 32.5093 227.003 31.7147 226.491 31.192C225.99 30.6693 225.248 30.408 224.267 30.408ZM256.706 45V22.872H261.09V41.448H270.85L270.386 45H256.706ZM288.534 40.536C288.534 41.1867 288.63 41.6613 288.822 41.96C289.014 42.248 289.323 42.4667 289.75 42.616L288.838 45.448C287.931 45.352 287.158 45.128 286.518 44.776C285.888 44.4133 285.403 43.8747 285.062 43.16C284.422 43.9387 283.611 44.52 282.63 44.904C281.659 45.288 280.64 45.48 279.574 45.48C277.846 45.48 276.475 44.9893 275.462 44.008C274.448 43.0267 273.942 41.752 273.942 40.184C273.942 38.3813 274.646 36.9947 276.054 36.024C277.472 35.0427 279.478 34.552 282.07 34.552H284.438V33.64C284.438 32.6373 284.128 31.912 283.51 31.464C282.891 31.0053 282 30.776 280.838 30.776C280.294 30.776 279.611 30.8507 278.79 31C277.979 31.1387 277.142 31.3573 276.278 31.656L275.27 28.76C276.347 28.3547 277.43 28.056 278.518 27.864C279.616 27.672 280.614 27.576 281.51 27.576C283.888 27.576 285.654 28.0827 286.806 29.096C287.958 30.0987 288.534 31.5227 288.534 33.368V40.536ZM280.95 42.424C281.59 42.424 282.235 42.2427 282.886 41.88C283.547 41.5173 284.064 41.0107 284.438 40.36V37.064H282.774C281.206 37.064 280.07 37.3147 279.366 37.816C278.672 38.3173 278.326 39.0267 278.326 39.944C278.326 40.7333 278.55 41.3467 278.998 41.784C279.446 42.2107 280.096 42.424 280.95 42.424ZM294.201 45V28.056H297.881L298.185 30.152C298.91 29.2987 299.726 28.6587 300.633 28.232C301.54 27.7947 302.516 27.576 303.561 27.576C305.086 27.576 306.249 28.0187 307.049 28.904C307.849 29.7787 308.249 31.0107 308.249 32.6V45H304.025V34.248C304.025 33.3947 303.972 32.712 303.865 32.2C303.758 31.6773 303.556 31.304 303.257 31.08C302.958 30.8453 302.526 30.728 301.961 30.728C301.502 30.728 301.06 30.8293 300.633 31.032C300.217 31.2347 299.822 31.5067 299.449 31.848C299.086 32.1893 298.745 32.568 298.425 32.984V45H294.201ZM327.997 25.672L329.053 28.968C328.413 29.192 327.693 29.352 326.892 29.448C326.093 29.5333 325.175 29.576 324.141 29.576C325.175 30.024 325.959 30.5947 326.493 31.288C327.037 31.9707 327.309 32.84 327.309 33.896C327.309 34.9947 327.026 35.976 326.461 36.84C325.906 37.704 325.111 38.3813 324.077 38.872C323.053 39.3627 321.831 39.608 320.413 39.608C319.975 39.608 319.586 39.5867 319.245 39.544C318.903 39.5013 318.573 39.4427 318.253 39.368C318.039 39.4853 317.874 39.656 317.757 39.88C317.639 40.104 317.581 40.3333 317.581 40.568C317.581 40.888 317.703 41.1653 317.949 41.4C318.205 41.624 318.749 41.736 319.581 41.736H322.461C323.709 41.736 324.802 41.9493 325.741 42.376C326.69 42.792 327.426 43.3573 327.949 44.072C328.482 44.7867 328.749 45.608 328.749 46.536C328.749 48.2427 328.007 49.576 326.525 50.536C325.042 51.496 322.877 51.976 320.029 51.976C317.991 51.976 316.402 51.768 315.261 51.352C314.13 50.936 313.335 50.328 312.877 49.528C312.418 48.7387 312.189 47.784 312.189 46.664H315.949C315.949 47.208 316.055 47.656 316.269 48.008C316.493 48.36 316.903 48.6213 317.501 48.792C318.109 48.9627 318.978 49.048 320.109 49.048C321.239 49.048 322.125 48.9573 322.765 48.776C323.415 48.5947 323.874 48.3333 324.141 47.992C324.407 47.6613 324.541 47.272 324.541 46.824C324.541 46.216 324.285 45.7413 323.773 45.4C323.261 45.0587 322.535 44.888 321.597 44.888H318.797C317.09 44.888 315.847 44.5573 315.069 43.896C314.29 43.224 313.901 42.4507 313.901 41.576C313.901 40.9787 314.061 40.408 314.381 39.864C314.711 39.3093 315.181 38.84 315.789 38.456C314.743 37.9013 313.986 37.24 313.517 36.472C313.058 35.6933 312.829 34.7547 312.829 33.656C312.829 32.4293 313.138 31.3627 313.757 30.456C314.375 29.5493 315.234 28.8453 316.333 28.344C317.431 27.8427 318.695 27.592 320.125 27.592C321.437 27.6027 322.551 27.5227 323.469 27.352C324.397 27.1813 325.213 26.9467 325.917 26.648C326.631 26.3493 327.325 26.024 327.997 25.672ZM320.205 30.408C319.202 30.408 318.434 30.7013 317.901 31.288C317.378 31.8747 317.117 32.6533 317.117 33.624C317.117 34.6267 317.389 35.4213 317.933 36.008C318.477 36.5947 319.239 36.888 320.22 36.888C321.191 36.888 321.927 36.6053 322.429 36.04C322.941 35.464 323.197 34.6427 323.197 33.576C323.197 32.5093 322.941 31.7147 322.429 31.192C321.927 30.6693 321.186 30.408 320.205 30.408ZM336.8 28.056V39.8C336.8 40.7173 336.981 41.3627 337.344 41.736C337.707 42.1093 338.235 42.296 338.928 42.296C339.589 42.296 340.235 42.0987 340.864 41.704C341.493 41.2987 342.005 40.7867 342.4 40.168V28.056H346.624V45H342.944L342.72 42.92C342.112 43.752 341.333 44.3867 340.384 44.824C339.435 45.2613 338.453 45.48 337.44 45.48C335.808 45.48 334.587 45.0213 333.776 44.104C332.976 43.176 332.576 41.912 332.576 40.312V28.056H336.8ZM365.284 40.536C365.284 41.1867 365.38 41.6613 365.572 41.96C365.764 42.248 366.073 42.4667 366.5 42.616L365.588 45.448C364.681 45.352 363.908 45.128 363.268 44.776C362.638 44.4133 362.153 43.8747 361.812 43.16C361.172 43.9387 360.361 44.52 359.38 44.904C358.409 45.288 357.39 45.48 356.324 45.48C354.596 45.48 353.225 44.9893 352.212 44.008C351.198 43.0267 350.692 41.752 350.692 40.184C350.692 38.3813 351.396 36.9947 352.804 36.024C354.222 35.0427 356.228 34.552 358.82 34.552H361.188V33.64C361.188 32.6373 360.878 31.912 360.26 31.464C359.641 31.0053 358.75 30.776 357.588 30.776C357.044 30.776 356.361 30.8507 355.54 31C354.729 31.1387 353.892 31.3573 353.028 31.656L352.02 28.76C353.097 28.3547 354.18 28.056 355.268 27.864C356.366 27.672 357.364 27.576 358.26 27.576C360.638 27.576 362.404 28.0827 363.556 29.096C364.708 30.0987 365.284 31.5227 365.284 33.368V40.536ZM357.7 42.424C358.34 42.424 358.985 42.2427 359.636 41.88C360.297 41.5173 360.814 41.0107 361.188 40.36V37.064H359.524C357.956 37.064 356.82 37.3147 356.116 37.816C355.422 38.3173 355.076 39.0267 355.076 39.944C355.076 40.7333 355.3 41.3467 355.748 41.784C356.196 42.2107 356.846 42.424 357.7 42.424ZM385.559 25.672L386.615 28.968C385.975 29.192 385.255 29.352 384.455 29.448C383.655 29.5333 382.738 29.576 381.703 29.576C382.738 30.024 383.522 30.5947 384.055 31.288C384.599 31.9707 384.871 32.84 384.871 33.896C384.871 34.9947 384.588 35.976 384.023 36.84C383.468 37.704 382.674 38.3813 381.639 38.872C380.615 39.3627 379.394 39.608 377.975 39.608C377.538 39.608 377.148 39.5867 376.807 39.544C376.466 39.5013 376.135 39.4427 375.815 39.368C375.602 39.4853 375.436 39.656 375.319 39.88C375.202 40.104 375.143 40.3333 375.143 40.568C375.143 40.888 375.266 41.1653 375.511 41.4C375.767 41.624 376.311 41.736 377.143 41.736H380.023C381.271 41.736 382.364 41.9493 383.303 42.376C384.252 42.792 384.988 43.3573 385.511 44.072C386.044 44.7867 386.311 45.608 386.311 46.536C386.311 48.2427 385.57 49.576 384.087 50.536C382.604 51.496 380.439 51.976 377.591 51.976C375.554 51.976 373.964 51.768 372.823 51.352C371.692 50.936 370.898 50.328 370.439 49.528C369.98 48.7387 369.751 47.784 369.751 46.664H373.511C373.511 47.208 373.618 47.656 373.831 48.008C374.055 48.36 374.466 48.6213 375.063 48.792C375.671 48.9627 376.54 49.048 377.671 49.048C378.802 49.048 379.687 48.9573 380.327 48.776C380.978 48.5947 381.436 48.3333 381.703 47.992C381.97 47.6613 382.103 47.272 382.103 46.824C382.103 46.216 381.847 45.7413 381.335 45.4C380.823 45.0587 380.098 44.888 379.159 44.888H376.359C374.652 44.888 373.41 44.5573 372.631 43.896C371.852 43.224 371.463 42.4507 371.463 41.576C371.463 40.9787 371.623 40.408 371.943 39.864C372.274 39.3093 372.743 38.84 373.351 38.456C372.306 37.9013 371.548 37.24 371.079 36.472C370.62 35.6933 370.391 34.7547 370.391 33.656C370.391 32.4293 370.7 31.3627 371.319 30.456C371.938 29.5493 372.796 28.8453 373.895 28.344C374.994 27.8427 376.258 27.592 377.687 27.592C378.999 27.6027 380.114 27.5227 381.031 27.352C381.959 27.1813 382.775 26.9467 383.479 26.648C384.194 26.3493 384.887 26.024 385.559 25.672ZM377.767 30.408C376.764 30.408 375.996 30.7013 375.463 31.288C374.94 31.8747 374.679 32.6533 374.679 33.624C374.679 34.6267 374.951 35.4213 375.495 36.008C376.039 36.5947 376.802 36.888 377.783 36.888C378.754 36.888 379.49 36.6053 379.991 36.04C380.503 35.464 380.759 34.6427 380.759 33.576C380.759 32.5093 380.503 31.7147 379.991 31.192C379.49 30.6693 378.748 30.408 377.767 30.408ZM393.739 37.816C393.824 38.872 394.064 39.7307 394.459 40.392C394.864 41.0533 395.381 41.5387 396.01 41.848C396.64 42.1573 397.339 42.312 398.107 42.312C398.917 42.312 399.68 42.184 400.395 41.928C401.109 41.672 401.813 41.3147 402.507 40.856L404.267 43.272C403.477 43.9333 402.533 44.4667 401.435 44.872C400.347 45.2773 399.147 45.48 397.835 45.48C396 45.48 394.453 45.1013 393.195 44.344C391.947 43.5867 391.003 42.536 390.363 41.192C389.723 39.848 389.403 38.3013 389.403 36.552C389.403 34.8667 389.717 33.3467 390.347 31.992C390.976 30.6373 391.883 29.5653 393.067 28.776C394.251 27.976 395.68 27.576 397.355 27.576C398.912 27.576 400.256 27.9173 401.387 28.6C402.517 29.2827 403.392 30.264 404.01 31.544C404.629 32.8133 404.939 34.344 404.939 36.136C404.939 36.424 404.928 36.7173 404.907 37.016C404.896 37.3147 404.88 37.5813 404.859 37.816H393.739ZM397.371 30.552C396.347 30.552 395.504 30.92 394.843 31.656C394.192 32.3813 393.808 33.5333 393.691 35.112H400.827C400.805 33.6827 400.507 32.568 399.931 31.768C399.365 30.9573 398.512 30.552 397.371 30.552ZM415.774 42.36C416.766 42.36 417.561 42.1893 418.158 41.848C418.766 41.496 419.07 41.0053 419.07 40.376C419.07 39.96 418.969 39.608 418.766 39.32C418.574 39.032 418.19 38.7653 417.614 38.52C417.038 38.264 416.174 37.9813 415.022 37.672C413.934 37.3947 412.979 37.0533 412.158 36.648C411.347 36.232 410.713 35.6987 410.254 35.048C409.806 34.3973 409.582 33.576 409.582 32.584C409.582 31.592 409.859 30.7227 410.414 29.976C410.969 29.2187 411.769 28.632 412.814 28.216C413.87 27.7893 415.139 27.576 416.622 27.576C418.073 27.576 419.342 27.768 420.43 28.152C421.518 28.5253 422.451 28.9947 423.23 29.56L421.502 32.136C420.819 31.6987 420.078 31.3467 419.278 31.08C418.489 30.8027 417.635 30.664 416.718 30.664C415.726 30.664 415.001 30.808 414.542 31.096C414.094 31.384 413.87 31.784 413.87 32.296C413.87 32.6587 413.982 32.968 414.206 33.224C414.441 33.4693 414.857 33.7093 415.454 33.944C416.062 34.168 416.926 34.44 418.046 34.76C419.145 35.0587 420.099 35.4107 420.91 35.816C421.731 36.2213 422.366 36.76 422.814 37.432C423.262 38.104 423.486 38.984 423.486 40.072C423.486 41.2987 423.129 42.312 422.414 43.112C421.699 43.912 420.755 44.5093 419.582 44.904C418.419 45.288 417.155 45.48 415.79 45.48C414.19 45.48 412.793 45.2507 411.598 44.792C410.403 44.3333 409.39 43.7413 408.558 43.016L410.75 40.552C411.411 41.0747 412.163 41.5067 413.006 41.848C413.859 42.1893 414.782 42.36 415.774 42.36Z" fill="white"/>
</svg>
