<svg width="473" height="71" viewBox="0 0 473 71" fill="none" xmlns="http://www.w3.org/2000/svg">
<rect y="3" width="473" height="66" rx="10" fill="#A160F1"/>
<path d="M25.176 27.104V33.616H33.256V36.848H25.176V46H20.792V23.872H34.808L34.344 27.104H25.176ZM38.9235 46V43.072H41.3075V31.968H38.9235V29.056H44.5235L45.3075 32.944C45.9262 31.504 46.7048 30.4213 47.6435 29.696C48.5822 28.96 49.7608 28.592 51.1795 28.592C51.7235 28.592 52.2035 28.6347 52.6195 28.72C53.0462 28.8053 53.4515 28.9173 53.8355 29.056L52.5715 32.608C52.2408 32.5227 51.9262 32.4587 51.6275 32.416C51.3288 32.3627 50.9928 32.336 50.6195 32.336C49.4462 32.336 48.4222 32.7947 47.5475 33.712C46.6835 34.6187 46.0115 35.8507 45.5315 37.408V43.072H48.9075V46H38.9235ZM50.2675 35.664V31.168L50.8435 29.056H53.8355L53.0835 35.664H50.2675ZM64.991 28.576C66.6763 28.576 68.1057 28.944 69.279 29.68C70.4523 30.416 71.343 31.456 71.951 32.8C72.5697 34.1333 72.879 35.696 72.879 37.488C72.879 39.3227 72.5697 40.912 71.951 42.256C71.3323 43.6 70.4363 44.64 69.263 45.376C68.0897 46.112 66.6603 46.48 64.975 46.48C63.3003 46.48 61.871 46.1227 60.687 45.408C59.5137 44.6827 58.6177 43.6533 57.999 42.32C57.3803 40.976 57.071 39.376 57.071 37.52C57.071 35.7493 57.3803 34.192 57.999 32.848C58.6177 31.504 59.519 30.4587 60.703 29.712C61.887 28.9547 63.3163 28.576 64.991 28.576ZM64.991 31.76C63.807 31.76 62.9217 32.224 62.335 33.152C61.759 34.08 61.471 35.536 61.471 37.52C61.471 39.5253 61.759 40.992 62.335 41.92C62.911 42.8373 63.791 43.296 64.975 43.296C66.159 43.296 67.039 42.8373 67.615 41.92C68.191 40.992 68.479 39.5147 68.479 37.488C68.479 35.5147 68.191 34.0693 67.615 33.152C67.039 32.224 66.1643 31.76 64.991 31.76ZM77.1385 46V29.056H80.8185L81.1225 31.152C81.8478 30.2987 82.6638 29.6587 83.5705 29.232C84.4772 28.7947 85.4532 28.576 86.4985 28.576C88.0238 28.576 89.1865 29.0187 89.9865 29.904C90.7865 30.7787 91.1865 32.0107 91.1865 33.6V46H86.9625V35.248C86.9625 34.3947 86.9092 33.712 86.8025 33.2C86.6958 32.6773 86.4932 32.304 86.1945 32.08C85.8958 31.8453 85.4638 31.728 84.8985 31.728C84.4398 31.728 83.9972 31.8293 83.5705 32.032C83.1545 32.2347 82.7598 32.5067 82.3865 32.848C82.0238 33.1893 81.6825 33.568 81.3625 33.984V46H77.1385ZM110.95 45.056C110.321 45.472 109.558 45.8133 108.662 46.08C107.766 46.3467 106.795 46.48 105.75 46.48C103.681 46.48 102.123 45.9467 101.078 44.88C100.033 43.8027 99.51 42.3733 99.51 40.592V32.048H95.83V29.056H99.51V25.328L103.734 24.816V29.056H109.334L108.902 32.048H103.734V40.576C103.734 41.4507 103.947 42.0907 104.374 42.496C104.801 42.9013 105.489 43.104 106.438 43.104C107.046 43.104 107.601 43.0347 108.102 42.896C108.614 42.7467 109.078 42.56 109.494 42.336L110.95 45.056ZM119.114 38.816C119.199 39.872 119.439 40.7307 119.834 41.392C120.239 42.0533 120.756 42.5387 121.385 42.848C122.015 43.1573 122.714 43.312 123.482 43.312C124.292 43.312 125.055 43.184 125.77 42.928C126.484 42.672 127.188 42.3147 127.882 41.856L129.642 44.272C128.852 44.9333 127.908 45.4667 126.81 45.872C125.722 46.2773 124.522 46.48 123.21 46.48C121.375 46.48 119.828 46.1013 118.57 45.344C117.322 44.5867 116.378 43.536 115.738 42.192C115.098 40.848 114.778 39.3013 114.778 37.552C114.778 35.8667 115.092 34.3467 115.722 32.992C116.351 31.6373 117.258 30.5653 118.442 29.776C119.626 28.976 121.055 28.576 122.73 28.576C124.287 28.576 125.631 28.9173 126.762 29.6C127.892 30.2827 128.767 31.264 129.385 32.544C130.004 33.8133 130.314 35.344 130.314 37.136C130.314 37.424 130.303 37.7173 130.282 38.016C130.271 38.3147 130.255 38.5813 130.234 38.816H119.114ZM122.746 31.552C121.722 31.552 120.879 31.92 120.218 32.656C119.567 33.3813 119.183 34.5333 119.066 36.112H126.202C126.18 34.6827 125.882 33.568 125.306 32.768C124.74 31.9573 123.887 31.552 122.746 31.552ZM134.701 46V29.056H138.381L138.685 31.152C139.41 30.2987 140.226 29.6587 141.133 29.232C142.04 28.7947 143.016 28.576 144.061 28.576C145.586 28.576 146.749 29.0187 147.549 29.904C148.349 30.7787 148.749 32.0107 148.749 33.6V46H144.525V35.248C144.525 34.3947 144.472 33.712 144.365 33.2C144.258 32.6773 144.056 32.304 143.757 32.08C143.458 31.8453 143.026 31.728 142.461 31.728C142.002 31.728 141.56 31.8293 141.133 32.032C140.717 32.2347 140.322 32.5067 139.949 32.848C139.586 33.1893 139.245 33.568 138.925 33.984V46H134.701ZM163.713 21.84L167.937 22.288V46H164.193L163.937 44C163.414 44.7467 162.758 45.3493 161.969 45.808C161.179 46.256 160.262 46.48 159.217 46.48C157.787 46.48 156.603 46.1067 155.665 45.36C154.737 44.6133 154.043 43.568 153.585 42.224C153.137 40.8693 152.913 39.296 152.913 37.504C152.913 35.776 153.179 34.24 153.713 32.896C154.246 31.552 155.014 30.496 156.016 29.728C157.03 28.96 158.23 28.576 159.617 28.576C160.449 28.576 161.206 28.72 161.889 29.008C162.571 29.296 163.179 29.7227 163.713 30.288V21.84ZM160.753 31.728C159.686 31.728 158.843 32.192 158.225 33.12C157.617 34.0373 157.313 35.504 157.313 37.52C157.313 38.9387 157.441 40.0747 157.697 40.928C157.953 41.7707 158.315 42.3787 158.785 42.752C159.254 43.1253 159.809 43.312 160.449 43.312C161.153 43.312 161.771 43.104 162.305 42.688C162.849 42.2613 163.318 41.7333 163.713 41.104V33.392C163.318 32.8693 162.875 32.464 162.385 32.176C161.905 31.8773 161.361 31.728 160.753 31.728ZM203.256 34.832C203.256 33.1893 203.101 31.8613 202.792 30.848C202.493 29.8347 202.082 29.0613 201.56 28.528C201.037 27.984 200.445 27.616 199.784 27.424C199.122 27.232 198.434 27.136 197.72 27.136H196.088V42.752H197.736C198.482 42.752 199.186 42.6347 199.848 42.4C200.52 42.1653 201.112 41.76 201.624 41.184C202.136 40.5973 202.536 39.792 202.824 38.768C203.112 37.7333 203.256 36.4213 203.256 34.832ZM207.832 34.832C207.832 36.6453 207.634 38.1973 207.24 39.488C206.856 40.7787 206.322 41.8507 205.64 42.704C204.957 43.5467 204.168 44.208 203.272 44.688C202.386 45.168 201.437 45.5093 200.424 45.712C199.421 45.904 198.402 46 197.368 46H191.704V23.872H196.984C198.36 23.872 199.693 24.0213 200.984 24.32C202.274 24.608 203.432 25.1413 204.456 25.92C205.49 26.6987 206.312 27.808 206.92 29.248C207.528 30.6773 207.832 32.5387 207.832 34.832ZM215.051 38.816C215.136 39.872 215.376 40.7307 215.771 41.392C216.176 42.0533 216.694 42.5387 217.323 42.848C217.952 43.1573 218.651 43.312 219.419 43.312C220.23 43.312 220.992 43.184 221.707 42.928C222.422 42.672 223.126 42.3147 223.819 41.856L225.579 44.272C224.79 44.9333 223.846 45.4667 222.747 45.872C221.659 46.2773 220.459 46.48 219.147 46.48C217.312 46.48 215.766 46.1013 214.507 45.344C213.259 44.5867 212.315 43.536 211.675 42.192C211.035 40.848 210.715 39.3013 210.715 37.552C210.715 35.8667 211.03 34.3467 211.659 32.992C212.288 31.6373 213.195 30.5653 214.379 29.776C215.563 28.976 216.992 28.576 218.667 28.576C220.224 28.576 221.568 28.9173 222.699 29.6C223.83 30.2827 224.704 31.264 225.323 32.544C225.942 33.8133 226.251 35.344 226.251 37.136C226.251 37.424 226.24 37.7173 226.219 38.016C226.208 38.3147 226.192 38.5813 226.171 38.816H215.051ZM218.683 31.552C217.659 31.552 216.816 31.92 216.155 32.656C215.504 33.3813 215.12 34.5333 215.003 36.112H222.139C222.118 34.6827 221.819 33.568 221.243 32.768C220.678 31.9573 219.824 31.552 218.683 31.552ZM245.983 29.056L240.159 46H235.199L229.343 29.056H233.887L237.743 42.624L241.679 29.056H245.983ZM253.426 38.816C253.511 39.872 253.751 40.7307 254.146 41.392C254.551 42.0533 255.069 42.5387 255.698 42.848C256.327 43.1573 257.026 43.312 257.794 43.312C258.605 43.312 259.367 43.184 260.082 42.928C260.797 42.672 261.501 42.3147 262.194 41.856L263.954 44.272C263.165 44.9333 262.221 45.4667 261.122 45.872C260.034 46.2773 258.834 46.48 257.522 46.48C255.687 46.48 254.141 46.1013 252.882 45.344C251.634 44.5867 250.69 43.536 250.05 42.192C249.41 40.848 249.09 39.3013 249.09 37.552C249.09 35.8667 249.405 34.3467 250.034 32.992C250.663 31.6373 251.57 30.5653 252.754 29.776C253.938 28.976 255.367 28.576 257.042 28.576C258.599 28.576 259.943 28.9173 261.074 29.6C262.205 30.2827 263.079 31.264 263.698 32.544C264.317 33.8133 264.626 35.344 264.626 37.136C264.626 37.424 264.615 37.7173 264.594 38.016C264.583 38.3147 264.567 38.5813 264.546 38.816H253.426ZM257.058 31.552C256.034 31.552 255.191 31.92 254.53 32.656C253.879 33.3813 253.495 34.5333 253.378 36.112H260.514C260.493 34.6827 260.194 33.568 259.618 32.768C259.053 31.9573 258.199 31.552 257.058 31.552ZM277.078 22.288V41.072C277.078 41.808 277.291 42.3307 277.718 42.64C278.155 42.9493 278.742 43.104 279.478 43.104C279.936 43.104 280.379 43.056 280.806 42.96C281.232 42.8533 281.638 42.7253 282.022 42.576L283.062 45.456C282.528 45.7227 281.878 45.9573 281.11 46.16C280.352 46.3733 279.472 46.48 278.47 46.48C276.624 46.48 275.227 45.952 274.278 44.896C273.328 43.84 272.854 42.416 272.854 40.624V25.28H267.782V22.288H277.078ZM295.241 28.576C296.926 28.576 298.356 28.944 299.529 29.68C300.702 30.416 301.593 31.456 302.201 32.8C302.82 34.1333 303.129 35.696 303.129 37.488C303.129 39.3227 302.82 40.912 302.201 42.256C301.582 43.6 300.686 44.64 299.513 45.376C298.34 46.112 296.91 46.48 295.225 46.48C293.55 46.48 292.121 46.1227 290.937 45.408C289.764 44.6827 288.868 43.6533 288.249 42.32C287.63 40.976 287.321 39.376 287.321 37.52C287.321 35.7493 287.63 34.192 288.249 32.848C288.868 31.504 289.769 30.4587 290.953 29.712C292.137 28.9547 293.566 28.576 295.241 28.576ZM295.241 31.76C294.057 31.76 293.172 32.224 292.585 33.152C292.009 34.08 291.721 35.536 291.721 37.52C291.721 39.5253 292.009 40.992 292.585 41.92C293.161 42.8373 294.041 43.296 295.225 43.296C296.409 43.296 297.289 42.8373 297.865 41.92C298.441 40.992 298.729 39.5147 298.729 37.488C298.729 35.5147 298.441 34.0693 297.865 33.152C297.289 32.224 296.414 31.76 295.241 31.76ZM316.141 28.576C317.634 28.576 318.829 28.944 319.725 29.68C320.631 30.4053 321.287 31.4347 321.693 32.768C322.109 34.1013 322.317 35.6747 322.317 37.488C322.317 39.2267 322.066 40.7733 321.565 42.128C321.063 43.4827 320.327 44.5493 319.357 45.328C318.397 46.096 317.213 46.48 315.805 46.48C314.077 46.48 312.679 45.8667 311.613 44.64V52.528L307.389 52.976V29.056H311.101L311.325 31.12C311.997 30.2453 312.749 29.6053 313.581 29.2C314.413 28.784 315.266 28.576 316.141 28.576ZM314.909 31.744C314.194 31.744 313.565 31.9573 313.021 32.384C312.487 32.8107 312.018 33.3387 311.613 33.968V41.552C311.997 42.128 312.434 42.56 312.925 42.848C313.415 43.136 313.97 43.28 314.589 43.28C315.666 43.28 316.487 42.832 317.053 41.936C317.629 41.0293 317.917 39.5627 317.917 37.536C317.917 36.1067 317.799 34.9707 317.565 34.128C317.341 33.2747 317.005 32.6667 316.557 32.304C316.109 31.9307 315.559 31.744 314.909 31.744ZM338.624 28.576C339.349 28.576 339.968 28.7307 340.48 29.04C340.992 29.3387 341.387 29.8453 341.664 30.56C341.941 31.264 342.08 32.224 342.08 33.44V46H338.4V33.968C338.4 33.2 338.336 32.656 338.208 32.336C338.091 32.016 337.819 31.856 337.392 31.856C337.04 31.856 336.683 31.9627 336.32 32.176C335.968 32.3787 335.6 32.7467 335.216 33.28V46H332.032V33.968C332.032 33.2 331.968 32.656 331.84 32.336C331.723 32.016 331.451 31.856 331.024 31.856C330.661 31.856 330.304 31.9627 329.952 32.176C329.6 32.3787 329.232 32.7467 328.848 33.28V46H325.12V29.056H328.272L328.544 30.816C329.045 30.112 329.573 29.5627 330.128 29.168C330.683 28.7733 331.349 28.576 332.128 28.576C332.768 28.576 333.333 28.736 333.824 29.056C334.325 29.3653 334.683 29.8987 334.896 30.656C335.387 30.0373 335.936 29.536 336.544 29.152C337.152 28.768 337.845 28.576 338.624 28.576ZM349.364 38.816C349.449 39.872 349.689 40.7307 350.084 41.392C350.489 42.0533 351.006 42.5387 351.635 42.848C352.265 43.1573 352.964 43.312 353.732 43.312C354.542 43.312 355.305 43.184 356.02 42.928C356.734 42.672 357.438 42.3147 358.132 41.856L359.892 44.272C359.102 44.9333 358.158 45.4667 357.06 45.872C355.972 46.2773 354.772 46.48 353.46 46.48C351.625 46.48 350.078 46.1013 348.82 45.344C347.572 44.5867 346.628 43.536 345.988 42.192C345.348 40.848 345.028 39.3013 345.028 37.552C345.028 35.8667 345.342 34.3467 345.972 32.992C346.601 31.6373 347.508 30.5653 348.692 29.776C349.876 28.976 351.305 28.576 352.98 28.576C354.537 28.576 355.881 28.9173 357.012 29.6C358.142 30.2827 359.017 31.264 359.635 32.544C360.254 33.8133 360.564 35.344 360.564 37.136C360.564 37.424 360.553 37.7173 360.532 38.016C360.521 38.3147 360.505 38.5813 360.484 38.816H349.364ZM352.996 31.552C351.972 31.552 351.129 31.92 350.468 32.656C349.817 33.3813 349.433 34.5333 349.316 36.112H356.452C356.43 34.6827 356.132 33.568 355.556 32.768C354.99 31.9573 354.137 31.552 352.996 31.552ZM364.951 46V29.056H368.631L368.935 31.152C369.66 30.2987 370.476 29.6587 371.383 29.232C372.29 28.7947 373.266 28.576 374.311 28.576C375.836 28.576 376.999 29.0187 377.799 29.904C378.599 30.7787 378.999 32.0107 378.999 33.6V46H374.775V35.248C374.775 34.3947 374.722 33.712 374.615 33.2C374.508 32.6773 374.306 32.304 374.007 32.08C373.708 31.8453 373.276 31.728 372.711 31.728C372.252 31.728 371.81 31.8293 371.383 32.032C370.967 32.2347 370.572 32.5067 370.199 32.848C369.836 33.1893 369.495 33.568 369.175 33.984V46H364.951ZM398.763 45.056C398.133 45.472 397.371 45.8133 396.475 46.08C395.579 46.3467 394.608 46.48 393.563 46.48C391.493 46.48 389.936 45.9467 388.891 44.88C387.845 43.8027 387.323 42.3733 387.323 40.592V32.048H383.643V29.056H387.323V25.328L391.547 24.816V29.056H397.147L396.715 32.048H391.547V40.576C391.547 41.4507 391.76 42.0907 392.187 42.496C392.613 42.9013 393.301 43.104 394.251 43.104C394.859 43.104 395.413 43.0347 395.915 42.896C396.427 42.7467 396.891 42.56 397.307 42.336L398.763 45.056Z" fill="white"/>
</svg>
