<svg width="486" height="69" viewBox="0 0 486 69" fill="none" xmlns="http://www.w3.org/2000/svg">
<rect width="486" height="69" rx="10" fill="#377CDE"/>
<path d="M50.824 38.648C50.824 39.992 50.4773 41.176 49.784 42.2C49.1013 43.224 48.1147 44.0293 46.824 44.616C45.5333 45.192 43.9707 45.48 42.136 45.48C40.216 45.48 38.568 45.1973 37.192 44.632C35.816 44.056 34.664 43.32 33.736 42.424L36.04 39.848C36.84 40.5627 37.736 41.1227 38.728 41.528C39.72 41.9333 40.8347 42.136 42.072 42.136C42.8613 42.136 43.5707 42.0133 44.2 41.768C44.84 41.5227 45.3413 41.1653 45.704 40.696C46.0773 40.216 46.264 39.6293 46.264 38.936C46.264 38.328 46.136 37.816 45.88 37.4C45.624 36.984 45.1813 36.6107 44.552 36.28C43.9333 35.9493 43.0693 35.6187 41.96 35.288C40.328 34.7867 38.984 34.2373 37.928 33.64C36.872 33.032 36.088 32.3173 35.576 31.496C35.064 30.664 34.808 29.6827 34.808 28.552C34.808 27.2827 35.16 26.1893 35.864 25.272C36.568 24.344 37.5173 23.6347 38.712 23.144C39.9173 22.6427 41.2613 22.392 42.744 22.392C44.3867 22.392 45.832 22.632 47.08 23.112C48.328 23.5813 49.4267 24.2533 50.376 25.128L48.184 27.608C47.4267 26.9573 46.6053 26.4773 45.72 26.168C44.8453 25.8587 43.9547 25.704 43.048 25.704C42.3333 25.704 41.6933 25.8 41.128 25.992C40.5733 26.184 40.136 26.4667 39.816 26.84C39.496 27.2133 39.336 27.688 39.336 28.264C39.336 28.7867 39.48 29.2347 39.768 29.608C40.0667 29.9707 40.5733 30.312 41.288 30.632C42.0027 30.9413 42.984 31.2933 44.232 31.688C45.544 32.0827 46.6907 32.5573 47.672 33.112C48.664 33.6667 49.4373 34.3867 49.992 35.272C50.5467 36.1467 50.824 37.272 50.824 38.648ZM61.8035 27.576C63.4888 27.576 64.9182 27.944 66.0915 28.68C67.2648 29.416 68.1555 30.456 68.7635 31.8C69.3822 33.1333 69.6915 34.696 69.6915 36.488C69.6915 38.3227 69.3822 39.912 68.7635 41.256C68.1448 42.6 67.2488 43.64 66.0755 44.376C64.9022 45.112 63.4728 45.48 61.7875 45.48C60.1128 45.48 58.6835 45.1227 57.4995 44.408C56.3262 43.6827 55.4302 42.6533 54.8115 41.32C54.1928 39.976 53.8835 38.376 53.8835 36.52C53.8835 34.7493 54.1928 33.192 54.8115 31.848C55.4302 30.504 56.3315 29.4587 57.5155 28.712C58.6995 27.9547 60.1288 27.576 61.8035 27.576ZM61.8035 30.76C60.6195 30.76 59.7342 31.224 59.1475 32.152C58.5715 33.08 58.2835 34.536 58.2835 36.52C58.2835 38.5253 58.5715 39.992 59.1475 40.92C59.7235 41.8373 60.6035 42.296 61.7875 42.296C62.9715 42.296 63.8515 41.8373 64.4275 40.92C65.0035 39.992 65.2915 38.5147 65.2915 36.488C65.2915 34.5147 65.0035 33.0693 64.4275 32.152C63.8515 31.224 62.9768 30.76 61.8035 30.76ZM84.463 20.84C85.5937 20.84 86.5963 20.9307 87.471 21.112C88.3457 21.2933 89.1403 21.5387 89.855 21.848L88.639 24.696C88.0737 24.4613 87.4817 24.2907 86.863 24.184C86.2443 24.0773 85.6257 24.024 85.007 24.024C83.9403 24.024 83.1617 24.2267 82.671 24.632C82.191 25.0267 81.951 25.6613 81.951 26.536V29.208H87.551L87.087 32.232H81.951V45H77.743V32.232H74.015V29.208H77.743V26.44C77.743 25.3413 78.0097 24.376 78.543 23.544C79.0763 22.7013 79.8443 22.04 80.847 21.56C81.8603 21.08 83.0657 20.84 84.463 20.84ZM107.763 44.056C107.133 44.472 106.371 44.8133 105.475 45.08C104.579 45.3467 103.608 45.48 102.563 45.48C100.493 45.48 98.9358 44.9467 97.8905 43.88C96.8452 42.8027 96.3225 41.3733 96.3225 39.592V31.048H92.6425V28.056H96.3225V24.328L100.547 23.816V28.056H106.147L105.715 31.048H100.547V39.576C100.547 40.4507 100.76 41.0907 101.187 41.496C101.613 41.9013 102.301 42.104 103.251 42.104C103.859 42.104 104.413 42.0347 104.915 41.896C105.427 41.7467 105.891 41.56 106.307 41.336L107.763 44.056ZM126.086 45H121.126L119.414 33.24L117.59 45H112.726L110.022 28.056H113.99L115.462 42.376L117.558 30.2H121.446L123.366 42.376L124.87 28.056H128.678L126.086 45ZM145.034 40.536C145.034 41.1867 145.13 41.6613 145.322 41.96C145.514 42.248 145.823 42.4667 146.25 42.616L145.338 45.448C144.431 45.352 143.658 45.128 143.018 44.776C142.388 44.4133 141.903 43.8747 141.562 43.16C140.922 43.9387 140.111 44.52 139.13 44.904C138.159 45.288 137.14 45.48 136.074 45.48C134.346 45.48 132.975 44.9893 131.962 44.008C130.948 43.0267 130.442 41.752 130.442 40.184C130.442 38.3813 131.146 36.9947 132.554 36.024C133.972 35.0427 135.978 34.552 138.57 34.552H140.938V33.64C140.938 32.6373 140.628 31.912 140.01 31.464C139.391 31.0053 138.5 30.776 137.338 30.776C136.794 30.776 136.111 30.8507 135.29 31C134.479 31.1387 133.642 31.3573 132.778 31.656L131.77 28.76C132.847 28.3547 133.93 28.056 135.018 27.864C136.116 27.672 137.114 27.576 138.01 27.576C140.388 27.576 142.154 28.0827 143.306 29.096C144.458 30.0987 145.034 31.5227 145.034 33.368V40.536ZM137.45 42.424C138.09 42.424 138.735 42.2427 139.386 41.88C140.047 41.5173 140.564 41.0107 140.938 40.36V37.064H139.274C137.706 37.064 136.57 37.3147 135.866 37.816C135.172 38.3173 134.826 39.0267 134.826 39.944C134.826 40.7333 135.05 41.3467 135.498 41.784C135.946 42.2107 136.596 42.424 137.45 42.424ZM150.861 45V42.072H153.245V30.968H150.861V28.056H156.461L157.245 31.944C157.864 30.504 158.642 29.4213 159.581 28.696C160.52 27.96 161.698 27.592 163.117 27.592C163.661 27.592 164.141 27.6347 164.557 27.72C164.984 27.8053 165.389 27.9173 165.773 28.056L164.509 31.608C164.178 31.5227 163.864 31.4587 163.565 31.416C163.266 31.3627 162.93 31.336 162.557 31.336C161.384 31.336 160.36 31.7947 159.485 32.712C158.621 33.6187 157.949 34.8507 157.469 36.408V42.072H160.845V45H150.861ZM162.205 34.664V30.168L162.781 28.056H165.773L165.021 34.664H162.205ZM173.489 37.816C173.574 38.872 173.814 39.7307 174.209 40.392C174.614 41.0533 175.131 41.5387 175.76 41.848C176.39 42.1573 177.089 42.312 177.857 42.312C178.667 42.312 179.43 42.184 180.145 41.928C180.859 41.672 181.563 41.3147 182.257 40.856L184.017 43.272C183.227 43.9333 182.283 44.4667 181.185 44.872C180.097 45.2773 178.897 45.48 177.585 45.48C175.75 45.48 174.203 45.1013 172.945 44.344C171.697 43.5867 170.753 42.536 170.113 41.192C169.473 39.848 169.153 38.3013 169.153 36.552C169.153 34.8667 169.467 33.3467 170.097 31.992C170.726 30.6373 171.633 29.5653 172.817 28.776C174.001 27.976 175.43 27.576 177.105 27.576C178.662 27.576 180.006 27.9173 181.137 28.6C182.267 29.2827 183.142 30.264 183.76 31.544C184.379 32.8133 184.689 34.344 184.689 36.136C184.689 36.424 184.678 36.7173 184.657 37.016C184.646 37.3147 184.63 37.5813 184.609 37.816H173.489ZM177.121 30.552C176.097 30.552 175.254 30.92 174.593 31.656C173.942 32.3813 173.558 33.5333 173.441 35.112H180.577C180.555 33.6827 180.257 32.568 179.681 31.768C179.115 30.9573 178.262 30.552 177.121 30.552Z" fill="white"/>
</svg>
