<svg width="512" height="73" viewBox="0 0 512 73" fill="none" xmlns="http://www.w3.org/2000/svg">
<rect width="472" height="73" rx="10" fill="#A6600B"/>
<path d="M39.248 25.872L40.496 48H36.592L36.176 37.808C36.144 36.9547 36.1227 36.1653 36.112 35.44C36.112 34.704 36.1173 34.0107 36.128 33.36C36.1387 32.6987 36.1547 32.064 36.176 31.456C36.208 30.848 36.2453 30.2507 36.288 29.664L33.36 44.16H29.808L26.672 29.664C26.7147 30.2293 26.752 30.8213 26.784 31.44C26.816 32.0587 26.8373 32.704 26.848 33.376C26.8693 34.048 26.88 34.7573 26.88 35.504C26.8907 36.2507 26.88 37.0293 26.848 37.84L26.544 48H22.704L23.952 25.872H28.816L31.664 40.48L34.384 25.872H39.248ZM50.8035 30.576C52.4888 30.576 53.9182 30.944 55.0915 31.68C56.2648 32.416 57.1555 33.456 57.7635 34.8C58.3822 36.1333 58.6915 37.696 58.6915 39.488C58.6915 41.3227 58.3822 42.912 57.7635 44.256C57.1448 45.6 56.2488 46.64 55.0755 47.376C53.9022 48.112 52.4728 48.48 50.7875 48.48C49.1128 48.48 47.6835 48.1227 46.4995 47.408C45.3262 46.6827 44.4302 45.6533 43.8115 44.32C43.1928 42.976 42.8835 41.376 42.8835 39.52C42.8835 37.7493 43.1928 36.192 43.8115 34.848C44.4302 33.504 45.3315 32.4587 46.5155 31.712C47.6995 30.9547 49.1288 30.576 50.8035 30.576ZM50.8035 33.76C49.6195 33.76 48.7342 34.224 48.1475 35.152C47.5715 36.08 47.2835 37.536 47.2835 39.52C47.2835 41.5253 47.5715 42.992 48.1475 43.92C48.7235 44.8373 49.6035 45.296 50.7875 45.296C51.9715 45.296 52.8515 44.8373 53.4275 43.92C54.0035 42.992 54.2915 41.5147 54.2915 39.488C54.2915 37.5147 54.0035 36.0693 53.4275 35.152C52.8515 34.224 51.9768 33.76 50.8035 33.76ZM67.175 32.96C67.7403 32.2133 68.407 31.632 69.175 31.216C69.9537 30.7893 70.791 30.576 71.687 30.576C73.1697 30.576 74.3697 30.944 75.287 31.68C76.215 32.4053 76.8923 33.4347 77.319 34.768C77.7563 36.1013 77.975 37.6747 77.975 39.488C77.975 41.2267 77.719 42.7733 77.207 44.128C76.695 45.4827 75.9323 46.5493 74.919 47.328C73.9163 48.096 72.6843 48.48 71.223 48.48C69.3883 48.48 67.943 47.7813 66.887 46.384L66.695 48H62.951V24.288L67.175 23.84V32.96ZM70.135 45.328C71.2123 45.328 72.055 44.8693 72.663 43.952C73.271 43.0347 73.575 41.5627 73.575 39.536C73.575 38.1067 73.447 36.9707 73.191 36.128C72.9457 35.2747 72.5883 34.6667 72.119 34.304C71.6603 33.9307 71.1057 33.744 70.455 33.744C69.751 33.744 69.127 33.9573 68.583 34.384C68.0497 34.8107 67.5803 35.3387 67.175 35.968V43.552C67.5377 44.1173 67.9643 44.5547 68.455 44.864C68.9457 45.1733 69.5057 45.328 70.135 45.328ZM91.8825 31.056V45.008H96.3465V48H82.6985V45.008H87.6585V34.048H82.8585V31.056H91.8825ZM89.1465 22.512C89.9252 22.512 90.5545 22.752 91.0345 23.232C91.5252 23.712 91.7705 24.3093 91.7705 25.024C91.7705 25.7387 91.5252 26.3413 91.0345 26.832C90.5545 27.312 89.9252 27.552 89.1465 27.552C88.3678 27.552 87.7332 27.312 87.2425 26.832C86.7518 26.3413 86.5065 25.7387 86.5065 25.024C86.5065 24.3093 86.7518 23.712 87.2425 23.232C87.7332 22.752 88.3678 22.512 89.1465 22.512ZM109.39 24.288V43.072C109.39 43.808 109.603 44.3307 110.03 44.64C110.467 44.9493 111.054 45.104 111.79 45.104C112.249 45.104 112.691 45.056 113.118 44.96C113.545 44.8533 113.95 44.7253 114.334 44.576L115.374 47.456C114.841 47.7227 114.19 47.9573 113.422 48.16C112.665 48.3733 111.785 48.48 110.782 48.48C108.937 48.48 107.539 47.952 106.59 46.896C105.641 45.84 105.166 44.416 105.166 42.624V27.28H100.094V24.288H109.39ZM124.114 40.816C124.199 41.872 124.439 42.7307 124.834 43.392C125.239 44.0533 125.756 44.5387 126.385 44.848C127.015 45.1573 127.714 45.312 128.482 45.312C129.292 45.312 130.055 45.184 130.77 44.928C131.484 44.672 132.188 44.3147 132.882 43.856L134.642 46.272C133.852 46.9333 132.908 47.4667 131.81 47.872C130.722 48.2773 129.522 48.48 128.21 48.48C126.375 48.48 124.828 48.1013 123.57 47.344C122.322 46.5867 121.378 45.536 120.738 44.192C120.098 42.848 119.778 41.3013 119.778 39.552C119.778 37.8667 120.092 36.3467 120.722 34.992C121.351 33.6373 122.258 32.5653 123.442 31.776C124.626 30.976 126.055 30.576 127.73 30.576C129.287 30.576 130.631 30.9173 131.762 31.6C132.892 32.2827 133.767 33.264 134.385 34.544C135.004 35.8133 135.314 37.344 135.314 39.136C135.314 39.424 135.303 39.7173 135.282 40.016C135.271 40.3147 135.255 40.5813 135.234 40.816H124.114ZM127.746 33.552C126.722 33.552 125.879 33.92 125.218 34.656C124.567 35.3813 124.183 36.5333 124.066 38.112H131.202C131.18 36.6827 130.882 35.568 130.306 34.768C129.74 33.9573 128.887 33.552 127.746 33.552ZM169.497 42.928H162.217L160.841 48H156.312L163.241 25.872H168.617L175.529 48H170.873L169.497 42.928ZM163.001 39.648H168.681L165.849 29.152L163.001 39.648ZM186.828 30.576C188.321 30.576 189.516 30.944 190.412 31.68C191.319 32.4053 191.975 33.4347 192.38 34.768C192.796 36.1013 193.004 37.6747 193.004 39.488C193.004 41.2267 192.753 42.7733 192.252 44.128C191.751 45.4827 191.015 46.5493 190.044 47.328C189.084 48.096 187.9 48.48 186.492 48.48C184.764 48.48 183.367 47.8667 182.3 46.64V54.528L178.076 54.976V31.056H181.788L182.012 33.12C182.684 32.2453 183.436 31.6053 184.268 31.2C185.1 30.784 185.953 30.576 186.828 30.576ZM185.596 33.744C184.881 33.744 184.252 33.9573 183.708 34.384C183.175 34.8107 182.705 35.3387 182.3 35.968V43.552C182.684 44.128 183.121 44.56 183.612 44.848C184.103 45.136 184.657 45.28 185.276 45.28C186.353 45.28 187.175 44.832 187.74 43.936C188.316 43.0293 188.604 41.5627 188.604 39.536C188.604 38.1067 188.487 36.9707 188.252 36.128C188.028 35.2747 187.692 34.6667 187.244 34.304C186.796 33.9307 186.247 33.744 185.596 33.744ZM206.016 30.576C207.509 30.576 208.704 30.944 209.6 31.68C210.506 32.4053 211.162 33.4347 211.568 34.768C211.984 36.1013 212.192 37.6747 212.192 39.488C212.192 41.2267 211.941 42.7733 211.44 44.128C210.938 45.4827 210.202 46.5493 209.232 47.328C208.272 48.096 207.088 48.48 205.68 48.48C203.952 48.48 202.554 47.8667 201.488 46.64V54.528L197.264 54.976V31.056H200.976L201.2 33.12C201.872 32.2453 202.624 31.6053 203.456 31.2C204.288 30.784 205.141 30.576 206.016 30.576ZM204.784 33.744C204.069 33.744 203.44 33.9573 202.896 34.384C202.362 34.8107 201.893 35.3387 201.488 35.968V43.552C201.872 44.128 202.309 44.56 202.8 44.848C203.29 45.136 203.845 45.28 204.464 45.28C205.541 45.28 206.362 44.832 206.928 43.936C207.504 43.0293 207.792 41.5627 207.792 39.536C207.792 38.1067 207.674 36.9707 207.44 36.128C207.216 35.2747 206.88 34.6667 206.432 34.304C205.984 33.9307 205.434 33.744 204.784 33.744ZM246.631 36.832C246.631 35.1893 246.476 33.8613 246.167 32.848C245.868 31.8347 245.457 31.0613 244.935 30.528C244.412 29.984 243.82 29.616 243.159 29.424C242.497 29.232 241.809 29.136 241.095 29.136H239.463V44.752H241.111C241.857 44.752 242.561 44.6347 243.223 44.4C243.895 44.1653 244.487 43.76 244.999 43.184C245.511 42.5973 245.911 41.792 246.199 40.768C246.487 39.7333 246.631 38.4213 246.631 36.832ZM251.207 36.832C251.207 38.6453 251.009 40.1973 250.615 41.488C250.231 42.7787 249.697 43.8507 249.015 44.704C248.332 45.5467 247.543 46.208 246.647 46.688C245.761 47.168 244.812 47.5093 243.799 47.712C242.796 47.904 241.777 48 240.743 48H235.079V25.872H240.359C241.735 25.872 243.068 26.0213 244.359 26.32C245.649 26.608 246.807 27.1413 247.831 27.92C248.865 28.6987 249.687 29.808 250.295 31.248C250.903 32.6773 251.207 34.5387 251.207 36.832ZM258.426 40.816C258.511 41.872 258.751 42.7307 259.146 43.392C259.551 44.0533 260.069 44.5387 260.698 44.848C261.327 45.1573 262.026 45.312 262.794 45.312C263.605 45.312 264.367 45.184 265.082 44.928C265.797 44.672 266.501 44.3147 267.194 43.856L268.954 46.272C268.165 46.9333 267.221 47.4667 266.122 47.872C265.034 48.2773 263.834 48.48 262.522 48.48C260.687 48.48 259.141 48.1013 257.882 47.344C256.634 46.5867 255.69 45.536 255.05 44.192C254.41 42.848 254.09 41.3013 254.09 39.552C254.09 37.8667 254.405 36.3467 255.034 34.992C255.663 33.6373 256.57 32.5653 257.754 31.776C258.938 30.976 260.367 30.576 262.042 30.576C263.599 30.576 264.943 30.9173 266.074 31.6C267.205 32.2827 268.079 33.264 268.698 34.544C269.317 35.8133 269.626 37.344 269.626 39.136C269.626 39.424 269.615 39.7173 269.594 40.016C269.583 40.3147 269.567 40.5813 269.546 40.816H258.426ZM262.058 33.552C261.034 33.552 260.191 33.92 259.53 34.656C258.879 35.3813 258.495 36.5333 258.378 38.112H265.514C265.493 36.6827 265.194 35.568 264.618 34.768C264.053 33.9573 263.199 33.552 262.058 33.552ZM289.358 31.056L283.534 48H278.574L272.718 31.056H277.262L281.118 44.624L285.054 31.056H289.358ZM296.801 40.816C296.886 41.872 297.126 42.7307 297.521 43.392C297.926 44.0533 298.444 44.5387 299.073 44.848C299.702 45.1573 300.401 45.312 301.169 45.312C301.98 45.312 302.742 45.184 303.457 44.928C304.172 44.672 304.876 44.3147 305.569 43.856L307.329 46.272C306.54 46.9333 305.596 47.4667 304.497 47.872C303.409 48.2773 302.209 48.48 300.897 48.48C299.062 48.48 297.516 48.1013 296.257 47.344C295.009 46.5867 294.065 45.536 293.425 44.192C292.785 42.848 292.465 41.3013 292.465 39.552C292.465 37.8667 292.78 36.3467 293.409 34.992C294.038 33.6373 294.945 32.5653 296.129 31.776C297.313 30.976 298.742 30.576 300.417 30.576C301.974 30.576 303.318 30.9173 304.449 31.6C305.58 32.2827 306.454 33.264 307.073 34.544C307.692 35.8133 308.001 37.344 308.001 39.136C308.001 39.424 307.99 39.7173 307.969 40.016C307.958 40.3147 307.942 40.5813 307.921 40.816H296.801ZM300.433 33.552C299.409 33.552 298.566 33.92 297.905 34.656C297.254 35.3813 296.87 36.5333 296.753 38.112H303.889C303.868 36.6827 303.569 35.568 302.993 34.768C302.428 33.9573 301.574 33.552 300.433 33.552ZM320.453 24.288V43.072C320.453 43.808 320.666 44.3307 321.093 44.64C321.53 44.9493 322.117 45.104 322.853 45.104C323.311 45.104 323.754 45.056 324.181 44.96C324.607 44.8533 325.013 44.7253 325.397 44.576L326.437 47.456C325.903 47.7227 325.253 47.9573 324.485 48.16C323.727 48.3733 322.847 48.48 321.845 48.48C319.999 48.48 318.602 47.952 317.653 46.896C316.703 45.84 316.229 44.416 316.229 42.624V27.28H311.157V24.288H320.453ZM338.616 30.576C340.301 30.576 341.731 30.944 342.904 31.68C344.077 32.416 344.968 33.456 345.576 34.8C346.195 36.1333 346.504 37.696 346.504 39.488C346.504 41.3227 346.195 42.912 345.576 44.256C344.957 45.6 344.061 46.64 342.888 47.376C341.715 48.112 340.285 48.48 338.6 48.48C336.925 48.48 335.496 48.1227 334.312 47.408C333.139 46.6827 332.243 45.6533 331.624 44.32C331.005 42.976 330.696 41.376 330.696 39.52C330.696 37.7493 331.005 36.192 331.624 34.848C332.243 33.504 333.144 32.4587 334.328 31.712C335.512 30.9547 336.941 30.576 338.616 30.576ZM338.616 33.76C337.432 33.76 336.547 34.224 335.96 35.152C335.384 36.08 335.096 37.536 335.096 39.52C335.096 41.5253 335.384 42.992 335.96 43.92C336.536 44.8373 337.416 45.296 338.6 45.296C339.784 45.296 340.664 44.8373 341.24 43.92C341.816 42.992 342.104 41.5147 342.104 39.488C342.104 37.5147 341.816 36.0693 341.24 35.152C340.664 34.224 339.789 33.76 338.616 33.76ZM359.516 30.576C361.009 30.576 362.204 30.944 363.1 31.68C364.006 32.4053 364.662 33.4347 365.068 34.768C365.484 36.1013 365.692 37.6747 365.692 39.488C365.692 41.2267 365.441 42.7733 364.94 44.128C364.438 45.4827 363.702 46.5493 362.732 47.328C361.772 48.096 360.588 48.48 359.18 48.48C357.452 48.48 356.054 47.8667 354.988 46.64V54.528L350.764 54.976V31.056H354.476L354.7 33.12C355.372 32.2453 356.124 31.6053 356.956 31.2C357.788 30.784 358.641 30.576 359.516 30.576ZM358.284 33.744C357.569 33.744 356.94 33.9573 356.396 34.384C355.862 34.8107 355.393 35.3387 354.988 35.968V43.552C355.372 44.128 355.809 44.56 356.3 44.848C356.79 45.136 357.345 45.28 357.964 45.28C359.041 45.28 359.862 44.832 360.428 43.936C361.004 43.0293 361.292 41.5627 361.292 39.536C361.292 38.1067 361.174 36.9707 360.94 36.128C360.716 35.2747 360.38 34.6667 359.932 34.304C359.484 33.9307 358.934 33.744 358.284 33.744ZM381.999 30.576C382.724 30.576 383.343 30.7307 383.855 31.04C384.367 31.3387 384.762 31.8453 385.039 32.56C385.316 33.264 385.455 34.224 385.455 35.44V48H381.775V35.968C381.775 35.2 381.711 34.656 381.583 34.336C381.466 34.016 381.194 33.856 380.767 33.856C380.415 33.856 380.058 33.9627 379.695 34.176C379.343 34.3787 378.975 34.7467 378.591 35.28V48H375.407V35.968C375.407 35.2 375.343 34.656 375.215 34.336C375.098 34.016 374.826 33.856 374.399 33.856C374.036 33.856 373.679 33.9627 373.327 34.176C372.975 34.3787 372.607 34.7467 372.223 35.28V48H368.495V31.056H371.647L371.919 32.816C372.42 32.112 372.948 31.5627 373.503 31.168C374.058 30.7733 374.724 30.576 375.503 30.576C376.143 30.576 376.708 30.736 377.199 31.056C377.7 31.3653 378.058 31.8987 378.271 32.656C378.762 32.0373 379.311 31.536 379.919 31.152C380.527 30.768 381.22 30.576 381.999 30.576ZM392.739 40.816C392.824 41.872 393.064 42.7307 393.459 43.392C393.864 44.0533 394.381 44.5387 395.01 44.848C395.64 45.1573 396.339 45.312 397.107 45.312C397.917 45.312 398.68 45.184 399.395 44.928C400.109 44.672 400.813 44.3147 401.507 43.856L403.267 46.272C402.477 46.9333 401.533 47.4667 400.435 47.872C399.347 48.2773 398.147 48.48 396.835 48.48C395 48.48 393.453 48.1013 392.195 47.344C390.947 46.5867 390.003 45.536 389.363 44.192C388.723 42.848 388.403 41.3013 388.403 39.552C388.403 37.8667 388.717 36.3467 389.347 34.992C389.976 33.6373 390.883 32.5653 392.067 31.776C393.251 30.976 394.68 30.576 396.355 30.576C397.912 30.576 399.256 30.9173 400.387 31.6C401.517 32.2827 402.392 33.264 403.01 34.544C403.629 35.8133 403.939 37.344 403.939 39.136C403.939 39.424 403.928 39.7173 403.907 40.016C403.896 40.3147 403.88 40.5813 403.859 40.816H392.739ZM396.371 33.552C395.347 33.552 394.504 33.92 393.843 34.656C393.192 35.3813 392.808 36.5333 392.691 38.112H399.827C399.805 36.6827 399.507 35.568 398.931 34.768C398.365 33.9573 397.512 33.552 396.371 33.552ZM408.326 48V31.056H412.006L412.31 33.152C413.035 32.2987 413.851 31.6587 414.758 31.232C415.665 30.7947 416.641 30.576 417.686 30.576C419.211 30.576 420.374 31.0187 421.174 31.904C421.974 32.7787 422.374 34.0107 422.374 35.6V48H418.15V37.248C418.15 36.3947 418.097 35.712 417.99 35.2C417.883 34.6773 417.681 34.304 417.382 34.08C417.083 33.8453 416.651 33.728 416.086 33.728C415.627 33.728 415.185 33.8293 414.758 34.032C414.342 34.2347 413.947 34.5067 413.574 34.848C413.211 35.1893 412.87 35.568 412.55 35.984V48H408.326ZM442.138 47.056C441.508 47.472 440.746 47.8133 439.85 48.08C438.954 48.3467 437.983 48.48 436.938 48.48C434.868 48.48 433.311 47.9467 432.266 46.88C431.22 45.8027 430.698 44.3733 430.698 42.592V34.048H427.018V31.056H430.698V27.328L434.922 26.816V31.056H440.522L440.09 34.048H434.922V42.576C434.922 43.4507 435.135 44.0907 435.562 44.496C435.988 44.9013 436.676 45.104 437.626 45.104C438.234 45.104 438.788 45.0347 439.29 44.896C439.802 44.7467 440.266 44.56 440.682 44.336L442.138 47.056Z" fill="white"/>
</svg>
