<svg width="252" height="68" viewBox="0 0 252 68" fill="none" xmlns="http://www.w3.org/2000/svg">
<rect width="252" height="68" rx="10" fill="#F75353"/>
<path d="M36.6413 32.8748C36.6465 31.2322 36.496 29.9037 36.1899 28.8894C35.8944 27.8751 35.4862 27.1005 34.9652 26.5655C34.4443 26.0198 33.8535 25.65 33.1927 25.4559C32.532 25.2618 31.8443 25.1636 31.1297 25.1614L29.4977 25.1562L29.4482 40.7721L31.0962 40.7773C31.8429 40.7797 32.5473 40.6646 33.2093 40.432C33.8821 40.1995 34.4754 39.796 34.9892 39.2216C35.503 38.6366 35.9056 37.8325 36.1968 36.8095C36.4881 35.7757 36.6363 34.4642 36.6413 32.8748ZM41.2173 32.8893C41.2115 34.7026 41.0093 36.254 40.6105 37.5434C40.2224 38.8329 39.6857 39.9032 39.0004 40.7543C38.315 41.5948 37.5236 42.2537 36.6261 42.7308C35.7392 43.208 34.7888 43.5464 33.7749 43.7458C32.7716 43.9346 31.7526 44.0274 30.718 44.0241L25.054 44.0062L25.124 21.8783L30.404 21.895C31.78 21.8994 33.1129 22.0529 34.4026 22.3557C35.6923 22.6478 36.848 23.1848 37.8695 23.9667C38.9017 24.7486 39.7195 25.8605 40.3229 27.3025C40.9264 28.7337 41.2245 30.596 41.2173 32.8893ZM58.3355 39.6475C58.3334 40.2982 58.4279 40.7732 58.6189 41.0724C58.81 41.3611 59.1187 41.5807 59.5449 41.7314L58.6239 44.5605C57.7175 44.4616 56.9449 44.2352 56.306 43.8811C55.6779 43.5165 55.1942 42.9763 54.8552 42.2605C54.2127 43.0372 53.4002 43.6159 52.4177 43.9968C51.4458 44.3778 50.4265 44.5665 49.3598 44.5632C47.6319 44.5577 46.2628 44.0627 45.2525 43.0781C44.2423 42.0936 43.7397 40.8173 43.7446 39.2494C43.7503 37.4467 44.4587 36.0623 45.8698 35.0961C47.2916 34.1192 49.2984 33.6349 51.8904 33.6431L54.2584 33.6506L54.2613 32.7386C54.2645 31.7359 53.9574 31.0096 53.3402 30.5597C52.723 30.0991 51.833 29.8669 50.6704 29.8632C50.1264 29.8615 49.4435 29.934 48.6217 30.0807C47.8106 30.2168 46.9726 30.4329 46.1076 30.7288L45.1088 27.8296C46.1874 27.4277 47.271 27.1325 48.3596 26.9439C49.4589 26.7554 50.4565 26.6625 51.3525 26.6654C53.7312 26.6729 55.4949 27.1852 56.6437 28.2021C57.7925 29.2084 58.364 30.6343 58.3581 32.4796L58.3355 39.6475ZM50.7455 41.5115C51.3855 41.5136 52.0314 41.3343 52.6832 40.9737C53.3457 40.6131 53.8646 40.1081 54.24 39.4586L54.2505 36.1626L52.5865 36.1573C51.0185 36.1524 49.8817 36.3994 49.1761 36.8985C48.4812 37.3977 48.1323 38.1059 48.1294 39.0232C48.1269 39.8126 48.3489 40.4266 48.7956 40.8654C49.2422 41.2934 49.8922 41.5088 50.7455 41.5115ZM78.6157 43.2318C77.9851 43.6458 77.2213 43.9847 76.3245 44.2485C75.4276 44.5123 74.4566 44.6426 73.4112 44.6393C71.3419 44.6327 69.7863 44.0945 68.7443 43.0245C67.7024 41.9439 67.1843 40.5129 67.1899 38.7316L67.2169 30.1876L63.537 30.176L63.5464 27.184L67.2264 27.1956L67.2382 23.4676L71.4638 22.969L71.4504 27.209L77.0504 27.2267L76.6089 30.2173L71.4409 30.201L71.4139 38.7289C71.4112 39.6036 71.6225 40.2443 72.0478 40.651C72.4732 41.0576 73.1606 41.2625 74.1099 41.2655C74.7179 41.2674 75.2728 41.1998 75.7746 41.0628C76.287 40.915 76.7516 40.7298 77.1683 40.5072L78.6157 43.2318ZM96.7103 39.769C96.7082 40.4197 96.8027 40.8946 96.9938 41.1939C97.1848 41.4825 97.4935 41.7022 97.9197 41.8529L96.9987 44.682C96.0924 44.5831 95.3197 44.3566 94.6809 44.0026C94.0527 43.638 93.569 43.0978 93.23 42.382C92.5875 43.1586 91.775 43.7374 90.7925 44.1183C89.8206 44.4992 88.8013 44.688 87.7347 44.6846C86.0067 44.6792 84.6376 44.1842 83.6273 43.1996C82.6171 42.2151 82.1145 40.9388 82.1194 39.3708C82.1252 37.5682 82.8335 36.1837 84.2446 35.2175C85.6664 34.2407 87.6732 33.7564 90.2652 33.7646L92.6332 33.7721L92.6361 32.8601C92.6393 31.8574 92.3322 31.1311 91.715 30.6812C91.0978 30.2205 90.2079 29.9884 89.0452 29.9847C88.5012 29.983 87.8183 30.0555 86.9965 30.2022C86.1854 30.3383 85.3474 30.5543 84.4824 30.8503L83.4836 27.9511C84.5622 27.5492 85.6458 27.2539 86.7344 27.0654C87.8337 26.8768 88.8313 26.784 89.7273 26.7868C92.106 26.7944 93.8697 27.3066 95.0185 28.3236C96.1673 29.3299 96.7388 30.7557 96.733 32.601L96.7103 39.769ZM89.1203 41.633C89.7603 41.635 90.4062 41.4557 91.058 41.0951C91.7205 40.7346 92.2394 40.2295 92.6148 39.58L92.6253 36.2841L90.9613 36.2788C89.3933 36.2738 88.2565 36.5209 87.5509 37.02C86.856 37.5191 86.5071 38.2274 86.5042 39.1447C86.5017 39.934 86.7237 40.5481 87.1704 40.9868C87.617 41.4149 88.267 41.6303 89.1203 41.633ZM106.635 29.2244C107.203 28.4795 107.871 27.9003 108.641 27.4867C109.421 27.0625 110.259 26.8518 111.155 26.8547C112.637 26.8594 113.836 27.2312 114.751 27.9701C115.677 28.6983 116.351 29.7298 116.773 31.0645C117.207 32.3992 117.42 33.9732 117.414 35.7865C117.409 37.5252 117.148 39.071 116.632 40.4241C116.116 41.7771 115.349 42.8414 114.334 43.6168C113.329 44.3816 112.095 44.7617 110.634 44.7571C108.799 44.7513 107.356 44.0481 106.305 42.6474L106.108 44.2628L102.364 44.2509L102.439 20.539L106.664 20.1044L106.635 29.2244ZM109.556 41.6017C110.633 41.6051 111.477 41.1491 112.088 40.2337C112.699 39.3183 113.008 37.8473 113.014 35.8206C113.019 34.3913 112.894 33.2549 112.641 32.4114C112.398 31.5573 112.043 30.9482 111.575 30.584C111.117 30.2092 110.563 30.0208 109.913 30.0188C109.209 30.0165 108.584 30.2279 108.039 30.6528C107.504 31.0778 107.033 31.6043 106.626 32.2324L106.602 39.8163C106.963 40.3828 107.388 40.8215 107.878 41.1324C108.367 41.4433 108.927 41.5997 109.556 41.6017ZM135.085 39.8905C135.083 40.5411 135.178 41.0161 135.369 41.3154C135.56 41.604 135.868 41.8236 136.294 41.9743L135.374 44.8034C134.467 44.7046 133.695 44.4781 133.056 44.1241C132.427 43.7594 131.944 43.2192 131.605 42.5035C130.962 43.2801 130.15 43.8589 129.167 44.2398C128.195 44.6207 127.176 44.8095 126.109 44.8061C124.381 44.8006 123.012 44.3056 122.002 43.3211C120.992 42.3366 120.489 41.0603 120.494 39.4923C120.5 37.6896 121.208 36.3052 122.619 35.339C124.041 34.3622 126.048 33.8778 128.64 33.8861L131.008 33.8935L131.011 32.9816C131.014 31.9789 130.707 31.2526 130.09 30.8026C129.473 30.342 128.583 30.1099 127.42 30.1062C126.876 30.1044 126.193 30.177 125.371 30.3237C124.56 30.4598 123.722 30.6758 122.857 30.9717L121.858 28.0726C122.937 27.6706 124.021 27.3754 125.109 27.1868C126.208 26.9983 127.206 26.9055 128.102 26.9083C130.481 26.9158 132.245 27.4281 133.393 28.4451C134.542 29.4514 135.114 30.8772 135.108 32.7225L135.085 39.8905ZM127.495 41.7545C128.135 41.7565 128.781 41.5772 129.433 41.2166C130.095 40.856 130.614 40.351 130.99 39.7015L131 36.4055L129.336 36.4003C127.768 36.3953 126.631 36.6424 125.926 37.1415C125.231 37.6406 124.882 38.3488 124.879 39.2662C124.876 40.0555 125.099 40.6695 125.545 41.1083C125.992 41.5364 126.642 41.7518 127.495 41.7545ZM147.195 41.7528C148.187 41.756 148.982 41.5878 149.58 41.2484C150.189 40.8983 150.495 40.4086 150.497 39.7793C150.498 39.3633 150.398 39.011 150.196 38.7223C150.005 38.4337 149.622 38.1658 149.047 37.9187C148.472 37.6608 147.609 37.3754 146.458 37.0625C145.37 36.7817 144.417 36.4373 143.597 36.0294C142.787 35.6108 142.155 35.0755 141.698 34.4234C141.252 33.7713 141.031 32.9493 141.034 31.9573C141.037 30.9653 141.317 30.0968 141.874 29.3519C142.431 28.5963 143.233 28.0122 144.28 27.5995C145.337 27.1762 146.607 26.9669 148.09 26.9716C149.54 26.9762 150.809 27.1722 151.896 27.5596C152.982 27.9364 153.914 28.4087 154.691 28.9765L152.955 31.547C152.274 31.1075 151.534 30.7532 150.734 30.484C149.946 30.2041 149.093 30.0628 148.176 30.0599C147.184 30.0567 146.458 30.1984 145.998 30.485C145.549 30.7716 145.324 31.1708 145.323 31.6828C145.321 32.0455 145.432 32.3552 145.656 32.6119C145.89 32.858 146.305 33.0993 146.901 33.3359C147.509 33.5618 148.372 33.8365 149.491 34.1601C150.588 34.4622 151.542 34.8172 152.351 35.2251C153.171 35.633 153.804 36.1737 154.25 36.8471C154.696 37.5205 154.917 38.4013 154.914 39.4892C154.91 40.7159 154.55 41.7281 153.832 42.5258C153.115 43.3236 152.169 43.9179 150.995 44.3089C149.831 44.6892 148.566 44.8772 147.201 44.8729C145.601 44.8678 144.204 44.634 143.011 44.1716C141.818 43.7091 140.806 43.1139 139.977 42.386L142.176 39.9289C142.836 40.4537 143.587 40.8881 144.428 41.2321C145.281 41.5761 146.203 41.7497 147.195 41.7528ZM163.549 37.2606C163.631 38.3168 163.868 39.1763 164.26 39.8388C164.664 40.5014 165.179 40.9884 165.808 41.2997C166.436 41.6111 167.134 41.7679 167.902 41.7704C168.713 41.7729 169.476 41.6474 170.191 41.3936C170.907 41.1399 171.612 40.7848 172.307 40.3283L174.059 42.7499C173.268 43.4087 172.322 43.939 171.222 44.3409C170.133 44.7428 168.932 44.9416 167.62 44.9375C165.786 44.9317 164.24 44.5481 162.984 43.7868C161.738 43.0255 160.798 41.9719 160.162 40.6259C159.526 39.2798 159.211 37.7322 159.217 35.9828C159.222 34.2975 159.541 32.7785 160.175 31.4259C160.809 30.0732 161.719 29.0041 162.905 28.2185C164.092 27.4222 165.522 27.0268 167.197 27.0321C168.754 27.037 170.097 27.3826 171.226 28.0688C172.354 28.7551 173.226 29.7392 173.84 31.0211C174.455 32.2924 174.759 33.824 174.754 35.616C174.753 35.904 174.741 36.1973 174.719 36.4959C174.707 36.7946 174.691 37.0612 174.668 37.2958L163.549 37.2606ZM167.204 30.0081C166.18 30.0049 165.336 30.3702 164.672 31.1041C164.019 31.8274 163.631 32.9781 163.509 34.5564L170.645 34.579C170.628 33.1496 170.333 32.034 169.76 31.2322C169.197 30.4197 168.345 30.0117 167.204 30.0081Z" fill="white"/>
</svg>
